<svg xmlns="http://www.w3.org/2000/svg" viewBox="0 0 200 219.06"><defs><style>.cls-1,.cls-4{fill:#facc00;}.cls-2,.cls-5{fill:#fff;}.cls-3{fill:#b3b3b3;}.cls-4{stroke:#fff;stroke-miterlimit:10;stroke-width:2px;}.cls-5{font-size:24px;font-family:Poppins-Bold, Poppins;font-weight:700;}</style></defs><g id="Capa_2" data-name="Capa 2"><g id="propuesta_página_nueva" data-name="propuesta página nueva"><g id="funcionamiento"><circle class="cls-1" cx="100" cy="119.06" r="100"/><path class="cls-2" d="M138.62,146.51l-12.34,39.54a2,2,0,0,1-2.83,1.09l-35.3-20.63a2,2,0,0,1-.87-2.26L99.84,124a1.37,1.37,0,0,1,2-.78l35.91,21A1.93,1.93,0,0,1,138.62,146.51Z"/><path class="cls-2" d="M140.82,144.74,172,133.58a.91.91,0,0,1,1.18,1.14l-12.84,41.11a.76.76,0,0,1-.46.48l-32.31,11.56a.75.75,0,0,1-1-.92l12.68-40.61A2.49,2.49,0,0,1,140.82,144.74Z"/><path class="cls-2" d="M102.53,121.54l32.08-11.49a.67.67,0,0,1,.55.06l36.49,21.33a.82.82,0,0,1-.14,1.49l-31.59,11.31a1.17,1.17,0,0,1-1-.09l-36.52-21.36A.69.69,0,0,1,102.53,121.54Z"/><path class="cls-3" d="M109.56,138.69c-.61,2.38-3.08,3.44-5.5,2.37a5.65,5.65,0,0,1-3.28-6.25c.62-2.38,3.09-3.44,5.51-2.37A5.63,5.63,0,0,1,109.56,138.69Z"/><ellipse class="cls-3" cx="101.51" cy="149.45" rx="4.2" ry="5.02" transform="translate(-70.57 94.44) rotate(-38.09)"/><ellipse class="cls-3" cx="97.39" cy="162.37" rx="4.2" ry="5.02" transform="translate(-79.42 94.65) rotate(-38.09)"/><path class="cls-3" d="M131.79,149.93c-.61,2.38-3.08,3.44-5.5,2.37a5.65,5.65,0,0,1-3.28-6.25c.62-2.38,3.09-3.44,5.51-2.37A5.63,5.63,0,0,1,131.79,149.93Z"/><ellipse class="cls-3" cx="123.31" cy="161.34" rx="4.2" ry="5.02" transform="translate(-73.27 110.41) rotate(-38.09)"/><ellipse class="cls-3" cx="119.19" cy="174.48" rx="4.2" ry="5.02" transform="translate(-82.25 110.67) rotate(-38.09)"/><ellipse class="cls-3" cx="135.66" cy="116.66" rx="2.49" ry="5.46" transform="translate(-3.89 228.63) rotate(-79.44)"/><ellipse class="cls-3" cx="138.36" cy="136.78" rx="2.48" ry="5.46" transform="translate(-21.47 247.71) rotate(-79.44)"/><path class="cls-3" d="M111.93,124.82a10.54,10.54,0,0,0,7.66,1c2-.73,1.89-2.36-.3-3.63a10.48,10.48,0,0,0-7.66-1C109.6,121.93,109.73,123.55,111.93,124.82Z"/><path class="cls-3" d="M155,131.63a10.71,10.71,0,0,0,7.84,1c2.08-.74,1.94-2.4-.31-3.71a10.71,10.71,0,0,0-7.84-1C152.56,128.66,152.7,130.33,155,131.63Z"/><path class="cls-3" d="M169,141.38c-.81,2.53-3,5.12-4.83,5.78s-2.7-.87-1.89-3.41,3-5.12,4.83-5.78S169.78,138.84,169,141.38Z"/><path class="cls-3" d="M154,158.66c-.81,2.54-3,5.13-4.83,5.78s-2.7-.86-1.89-3.4,3-5.12,4.83-5.78S154.82,156.13,154,158.66Z"/><path class="cls-3" d="M138.84,176.82c-.82,2.53-3,5.12-4.84,5.77s-2.7-.86-1.89-3.4,3-5.12,4.83-5.78S139.65,174.28,138.84,176.82Z"/><path class="cls-3" d="M141.56,151.22c-.81,2.53,0,4.06,1.89,3.4s4-3.24,4.84-5.78,0-4.06-1.9-3.4S142.37,148.68,141.56,151.22Z"/><ellipse class="cls-3" cx="156.59" cy="170.54" rx="5.44" ry="2.51" transform="translate(-72.12 206.56) rotate(-56.39)"/><path class="cls-2" d="M68.09,86.31l20.46,36a1.93,1.93,0,0,0,3,.47L120.75,96a3.5,3.5,0,0,0,.67-4.29L101.21,56.11a1.37,1.37,0,0,0-2.12-.33L68.46,83.93A1.92,1.92,0,0,0,68.09,86.31Z"/><path class="cls-2" d="M65.56,85.05,32.73,80.77a.91.91,0,0,0-.91,1.36l20.46,36a4,4,0,0,0,3,2l32.38,4.22a.74.74,0,0,0,.75-1.11l-21-37A2.48,2.48,0,0,0,65.56,85.05Z"/><path class="cls-2" d="M98,54.24l-33-4.3a2.29,2.29,0,0,0-1.85.59L32.61,78.61A.83.83,0,0,0,33.06,80l33,4.29a1.79,1.79,0,0,0,1.45-.46L98.43,55.45A.7.7,0,0,0,98,54.24Z"/><ellipse class="cls-3" cx="65.92" cy="65.38" rx="5.56" ry="2.99" transform="translate(-25.74 50.63) rotate(-35.62)"/><ellipse class="cls-3" cx="64.18" cy="91.9" rx="2.51" ry="5.37" transform="translate(-47.05 77.97) rotate(-47.93)"/><path class="cls-3" d="M59.13,114.18c1.26,2.22.64,3.76-1.39,3.46s-4.7-2.36-6-4.57-.64-3.77,1.39-3.46S57.87,112,59.13,114.18Z"/><path class="cls-3" d="M101.61,63.87a5.6,5.6,0,0,1-.82,6.81,3.54,3.54,0,0,1-5.66-.36,5.58,5.58,0,0,1,.82-6.8A3.54,3.54,0,0,1,101.61,63.87Z"/><path class="cls-3" d="M99,85.24a5.59,5.59,0,0,1-.82,6.81,3.54,3.54,0,0,1-5.66-.36,5.58,5.58,0,0,1,.82-6.8A3.55,3.55,0,0,1,99,85.24Z"/><path class="cls-3" d="M96.47,106.61a5.59,5.59,0,0,1-.82,6.81,3.55,3.55,0,0,1-5.66-.35,5.59,5.59,0,0,1,.82-6.81A3.55,3.55,0,0,1,96.47,106.61Z"/><circle class="cls-4" cx="100.74" cy="18.5" r="17.5"/><text class="cls-5" transform="translate(93.84 26.86)">3</text></g></g></g></svg>