<svg xmlns="http://www.w3.org/2000/svg" xmlns:xlink="http://www.w3.org/1999/xlink" viewBox="0 0 200 217.15"><defs><style>.cls-1,.cls-7{fill:#7bbb54;}.cls-2{clip-path:url(#clip-path);}.cls-3{fill:#ccc;}.cls-4,.cls-8{fill:#fff;}.cls-5{fill:#b3b3b3;}.cls-6{fill:#4d4d4d;}.cls-7{stroke:#fff;stroke-miterlimit:10;stroke-width:2px;}.cls-8{font-size:24px;font-family:Poppins-Bold, Poppins;font-weight:700;}</style><clipPath id="clip-path"><circle class="cls-1" cx="100" cy="117.15" r="100"/></clipPath></defs><g id="Capa_2" data-name="Capa 2"><g id="propuesta_página_nueva" data-name="propuesta página nueva"><g id="funcionamiento"><circle class="cls-1" cx="100" cy="117.15" r="100"/><g class="cls-2"><rect class="cls-3" x="101.74" y="39.35" width="78" height="115.44" rx="2.94" transform="translate(51.65 -48.85) rotate(24)"/><rect class="cls-4" x="102.51" y="40.54" width="78" height="115.44" rx="2.94" transform="translate(52.2 -49.06) rotate(24)"/><path class="cls-5" d="M150,48.07a.35.35,0,0,1-.17,0l-19.45-8.66a.4.4,0,0,1-.21-.53.4.4,0,0,1,.53-.2l19.46,8.66a.4.4,0,0,1-.16.77Z"/><path class="cls-5" d="M142.69,49a.45.45,0,0,1-.16,0L128.8,42.86a.4.4,0,0,1,.33-.73l13.72,6.11a.4.4,0,0,1,.21.53A.4.4,0,0,1,142.69,49Z"/><path class="cls-5" d="M184.06,76.88a.45.45,0,0,1-.16,0l-53.83-24a.4.4,0,0,1-.2-.53.39.39,0,0,1,.52-.2l53.83,24a.39.39,0,0,1,.21.52A.41.41,0,0,1,184.06,76.88Z"/><path class="cls-5" d="M182.28,80.88a.45.45,0,0,1-.16,0l-53.83-24a.42.42,0,0,1-.21-.53.4.4,0,0,1,.53-.2l53.83,24a.4.4,0,0,1,.21.52A.41.41,0,0,1,182.28,80.88Z"/><path class="cls-5" d="M172.51,81.32a.51.51,0,0,1-.17,0L126.51,60.88a.4.4,0,0,1-.21-.53.4.4,0,0,1,.53-.2l45.84,20.41a.4.4,0,0,1,.2.53A.38.38,0,0,1,172.51,81.32Z"/><path class="cls-5" d="M174.89,97.48a.47.47,0,0,1-.16,0l-53.83-24a.39.39,0,0,1-.2-.52.4.4,0,0,1,.53-.21l53.83,24a.4.4,0,0,1-.17.77Z"/><path class="cls-5" d="M173.11,101.48a.47.47,0,0,1-.16,0l-53.83-24a.4.4,0,0,1,.32-.73l53.83,24a.4.4,0,0,1,.21.53A.41.41,0,0,1,173.11,101.48Z"/><path class="cls-5" d="M163.34,101.92a.29.29,0,0,1-.16,0L117.34,81.47a.4.4,0,0,1,.32-.73l45.84,20.41a.4.4,0,0,1,.2.53A.39.39,0,0,1,163.34,101.92Z"/><path class="cls-5" d="M165.7,118.12a.32.32,0,0,1-.16,0l-53.83-24a.4.4,0,0,1-.2-.53.39.39,0,0,1,.52-.2l53.83,24a.4.4,0,0,1,.21.53A.41.41,0,0,1,165.7,118.12Z"/><path class="cls-5" d="M163.92,122.12a.32.32,0,0,1-.16,0l-53.83-24a.4.4,0,0,1-.2-.53.39.39,0,0,1,.52-.2l53.83,24a.4.4,0,0,1,.21.53A.41.41,0,0,1,163.92,122.12Z"/><path class="cls-5" d="M154.15,122.56a.35.35,0,0,1-.17,0l-45.83-20.4a.41.41,0,0,1-.21-.53.4.4,0,0,1,.53-.2l45.84,20.4a.4.4,0,0,1,.2.53A.39.39,0,0,1,154.15,122.56Z"/><path class="cls-5" d="M156.28,139.28a.32.32,0,0,1-.16,0l-53.83-24a.4.4,0,0,1-.2-.53.39.39,0,0,1,.52-.2l53.83,24a.4.4,0,0,1,.21.53A.41.41,0,0,1,156.28,139.28Z"/><path class="cls-5" d="M154.5,143.28a.32.32,0,0,1-.16,0l-53.83-24a.41.41,0,0,1-.21-.53.4.4,0,0,1,.53-.2l53.83,24a.41.41,0,0,1,.21.53A.41.41,0,0,1,154.5,143.28Z"/><path class="cls-5" d="M144.73,143.72a.35.35,0,0,1-.17,0l-45.83-20.4a.4.4,0,0,1-.21-.53.4.4,0,0,1,.53-.2L144.89,143a.4.4,0,0,1-.16.77Z"/><circle class="cls-6" cx="126.37" cy="51.38" r="1.25"/><circle class="cls-6" cx="117.15" cy="72.1" r="1.25"/><circle class="cls-6" cx="107.93" cy="92.81" r="1.25"/><circle class="cls-6" cx="98.71" cy="113.52" r="1.25"/><path class="cls-5" d="M128.35,70.94a.45.45,0,0,1-.16,0l-4.56-2a.4.4,0,0,1-.2-.53l2-4.56a.39.39,0,0,1,.52-.2l4.56,2a.4.4,0,0,1,.21.53l-2,4.56A.4.4,0,0,1,128.35,70.94Zm-4-2.63L128.15,70l1.7-3.83L126,64.48Z"/><path class="cls-5" d="M135.38,74.07a.51.51,0,0,1-.17,0l-4.56-2a.4.4,0,0,1-.2-.53l2-4.56a.4.4,0,0,1,.53-.2l4.56,2a.38.38,0,0,1,.21.22.35.35,0,0,1,0,.3l-2,4.57a.41.41,0,0,1-.22.21Zm-4-2.63,3.82,1.7,1.71-3.83-3.83-1.7Z"/><path class="cls-5" d="M142.4,77.2a.45.45,0,0,1-.16,0l-4.56-2a.4.4,0,0,1-.2-.53l2-4.56a.35.35,0,0,1,.22-.21.42.42,0,0,1,.31,0l4.56,2a.4.4,0,0,1,.2.53l-2,4.56a.35.35,0,0,1-.22.21Zm-4-2.63,3.83,1.7,1.71-3.83-3.83-1.7Z"/><path class="cls-5" d="M149.43,80.33a.29.29,0,0,1-.16,0l-4.56-2a.35.35,0,0,1-.21-.22.39.39,0,0,1,0-.3l2-4.56a.4.4,0,0,1,.53-.21l4.56,2a.42.42,0,0,1,.21.53l-2,4.56A.39.39,0,0,1,149.43,80.33Zm-4-2.63,3.83,1.7,1.7-3.83-3.83-1.7Z"/><path class="cls-5" d="M119,92a.47.47,0,0,1-.16,0l-4.56-2a.38.38,0,0,1-.21-.22.37.37,0,0,1,0-.31l2-4.56a.39.39,0,0,1,.52-.2l4.56,2a.4.4,0,0,1,.21.53l-2,4.56a.43.43,0,0,1-.23.21A.32.32,0,0,1,119,92Zm-4-2.64,3.83,1.71,1.7-3.83-3.83-1.71Z"/><path class="cls-5" d="M126,95.16a.51.51,0,0,1-.17,0l-4.56-2a.41.41,0,0,1-.21-.22.42.42,0,0,1,0-.31l2-4.56a.38.38,0,0,1,.22-.21.37.37,0,0,1,.31,0l4.56,2a.4.4,0,0,1,.2.53l-2,4.56A.38.38,0,0,1,126,95.16Zm-4-2.63,3.83,1.71,1.71-3.83-3.83-1.71Z"/><path class="cls-5" d="M133,98.29a.45.45,0,0,1-.16,0l-4.56-2a.45.45,0,0,1-.21-.22.37.37,0,0,1,0-.31l2-4.56a.4.4,0,0,1,.53-.2l4.56,2a.41.41,0,0,1,.21.22.44.44,0,0,1,0,.3l-2,4.57A.41.41,0,0,1,133,98.29Zm-4-2.63,3.83,1.7,1.71-3.83-3.83-1.7Z"/><path class="cls-5" d="M140,101.42a.41.41,0,0,1-.16,0l-4.56-2a.4.4,0,0,1-.21-.53l2-4.56a.39.39,0,0,1,.23-.21.39.39,0,0,1,.3,0l4.56,2a.43.43,0,0,1,.21.23.35.35,0,0,1,0,.3l-2,4.56A.39.39,0,0,1,140,101.42Zm-4-2.63,3.83,1.7,1.7-3.83L137.71,95Z"/><path class="cls-5" d="M109.57,113.13a.32.32,0,0,1-.16,0l-4.56-2a.4.4,0,0,1-.21-.52l2-4.57a.47.47,0,0,1,.23-.21.44.44,0,0,1,.3,0l4.56,2a.41.41,0,0,1,.21.22.42.42,0,0,1,0,.31l-2,4.56A.41.41,0,0,1,109.57,113.13Zm-4-2.63,3.83,1.7,1.7-3.83-3.83-1.7Z"/><path class="cls-5" d="M116.6,116.26a.35.35,0,0,1-.17,0l-4.56-2a.4.4,0,0,1-.2-.53l2-4.56a.4.4,0,0,1,.53-.2l4.56,2a.4.4,0,0,1,.2.53L117,116A.39.39,0,0,1,116.6,116.26Zm-4-2.64,3.83,1.71,1.71-3.83-3.83-1.71Z"/><path class="cls-5" d="M123.62,119.38a.45.45,0,0,1-.16,0l-4.56-2a.4.4,0,0,1-.2-.53l2-4.56a.39.39,0,0,1,.52-.2l4.57,2a.4.4,0,0,1,.2.53l-2,4.56A.4.4,0,0,1,123.62,119.38Zm-4-2.63,3.83,1.71,1.7-3.83-3.83-1.71Z"/><path class="cls-5" d="M130.65,122.51a.51.51,0,0,1-.17,0l-4.56-2a.4.4,0,0,1-.2-.53l2-4.56a.4.4,0,0,1,.53-.2l4.56,2a.38.38,0,0,1,.21.22.35.35,0,0,1,0,.3l-2,4.57a.41.41,0,0,1-.22.21Zm-4-2.63,3.82,1.7,1.71-3.83-3.83-1.7Z"/><path class="cls-5" d="M100.18,134.22a.41.41,0,0,1-.16,0l-4.56-2a.4.4,0,0,1-.21-.53l2-4.56a.4.4,0,0,1,.53-.21l4.56,2a.41.41,0,0,1,.21.53l-2,4.56A.39.39,0,0,1,100.18,134.22Zm-4-2.63,3.83,1.7,1.7-3.83-3.83-1.7Z"/><path class="cls-5" d="M107.21,137.35a.33.33,0,0,1-.17,0l-4.56-2a.41.41,0,0,1-.21-.22.39.39,0,0,1,0-.3l2-4.57a.4.4,0,0,1,.53-.2l4.56,2a.4.4,0,0,1,.2.53l-2,4.56a.38.38,0,0,1-.22.21Zm-4-2.63,3.83,1.7,1.71-3.83-3.83-1.7Z"/><path class="cls-5" d="M114.23,140.48a.47.47,0,0,1-.16,0l-4.56-2a.38.38,0,0,1-.21-.22.37.37,0,0,1,0-.31l2-4.56a.39.39,0,0,1,.52-.2l4.56,2a.4.4,0,0,1,.21.53l-2,4.56a.43.43,0,0,1-.23.21A.32.32,0,0,1,114.23,140.48Zm-4-2.64,3.83,1.71,1.7-3.83L111.9,134Z"/><path class="cls-5" d="M121.26,143.6a.51.51,0,0,1-.17,0l-4.56-2a.4.4,0,0,1-.2-.53l2-4.56a.4.4,0,0,1,.53-.2l4.56,2a.4.4,0,0,1,.2.53l-2,4.56A.38.38,0,0,1,121.26,143.6Zm-4-2.63,3.83,1.71,1.71-3.83-3.83-1.71Z"/><path class="cls-5" d="M141.32,75.32a.64.64,0,0,1-.2,0,.59.59,0,0,1-.36-.35l-.95-2.48a.59.59,0,0,1,.34-.77.6.6,0,0,1,.78.34l.69,1.81,4-2.36a.6.6,0,0,1,.82.21.61.61,0,0,1-.21.83l-4.63,2.72A.64.64,0,0,1,141.32,75.32Z"/><path class="cls-5" d="M125.07,93.36a.69.69,0,0,1-.2,0,.62.62,0,0,1-.36-.35l-1-2.47a.61.61,0,0,1,.35-.78.6.6,0,0,1,.77.35l.7,1.81,4-2.36a.6.6,0,0,1,.61,1l-4.63,2.72A.52.52,0,0,1,125.07,93.36Z"/><path class="cls-5" d="M129.7,120.71a.51.51,0,0,1-.2,0,.59.59,0,0,1-.36-.35l-.95-2.47a.6.6,0,0,1,.35-.77.59.59,0,0,1,.77.34l.7,1.81,4-2.36a.6.6,0,1,1,.6,1L130,120.62A.59.59,0,0,1,129.7,120.71Z"/><path class="cls-5" d="M99.27,132.33a.69.69,0,0,1-.2,0,.59.59,0,0,1-.36-.35l-.95-2.48a.6.6,0,0,1,1.12-.43l.7,1.81,4-2.36a.6.6,0,0,1,.61,1l-4.63,2.72A.61.61,0,0,1,99.27,132.33Z"/><rect class="cls-3" x="21.95" y="84.78" width="78" height="115.44" rx="2.94" transform="translate(-45.06 29.44) rotate(-20)"/><rect class="cls-4" x="23.5" y="85.52" width="78" height="115.44" rx="2.94" transform="translate(-45.22 30.01) rotate(-20)"/><path class="cls-5" d="M13.43,108.65a.4.4,0,0,1-.13-.78l20-7.28a.39.39,0,0,1,.51.24.4.4,0,0,1-.24.51l-20,7.28A.35.35,0,0,1,13.43,108.65Z"/><path class="cls-5" d="M14.74,112.24a.41.41,0,0,1-.38-.26.42.42,0,0,1,.24-.52l14.12-5.14a.41.41,0,0,1,.52.24.4.4,0,0,1-.24.51l-14.12,5.14A.35.35,0,0,1,14.74,112.24Z"/><path class="cls-5" d="M22.61,118.56a.41.41,0,0,1-.38-.26.41.41,0,0,1,.24-.51L77.84,97.64a.41.41,0,0,1,.52.23.41.41,0,0,1-.24.52L22.75,118.54A.34.34,0,0,1,22.61,118.56Z"/><path class="cls-5" d="M24.11,122.68a.4.4,0,0,1-.14-.78l55.37-20.15a.4.4,0,1,1,.28.75L24.25,122.66Z"/><path class="cls-5" d="M25.61,126.79a.4.4,0,0,1-.38-.26.39.39,0,0,1,.24-.51l47.15-17.16a.39.39,0,0,1,.51.24.4.4,0,0,1-.24.51L25.74,126.77A.3.3,0,0,1,25.61,126.79Z"/><path class="cls-5" d="M30.32,139.75a.41.41,0,0,1-.38-.27.41.41,0,0,1,.24-.51l55.37-20.15a.4.4,0,1,1,.28.75L30.46,139.72A.35.35,0,0,1,30.32,139.75Z"/><path class="cls-5" d="M31.82,143.86a.4.4,0,0,1-.14-.77l55.37-20.16a.4.4,0,0,1,.51.24.39.39,0,0,1-.23.51L32,143.84Z"/><path class="cls-5" d="M33.32,148a.4.4,0,0,1-.14-.78L80.33,130a.4.4,0,0,1,.51.24.39.39,0,0,1-.24.51L33.45,148A.31.31,0,0,1,33.32,148Z"/><path class="cls-5" d="M38.05,161a.4.4,0,0,1-.14-.78l55.37-20.15a.4.4,0,1,1,.28.75L38.19,161Z"/><path class="cls-5" d="M39.55,165.09a.4.4,0,0,1-.38-.26.39.39,0,0,1,.24-.51l55.37-20.15a.39.39,0,0,1,.51.23.4.4,0,0,1-.24.52L39.68,165.07A.3.3,0,0,1,39.55,165.09Z"/><path class="cls-5" d="M41,169.21a.4.4,0,0,1-.37-.26.4.4,0,0,1,.24-.52l47.15-17.16a.4.4,0,0,1,.51.24.4.4,0,0,1-.24.51L41.18,169.19Z"/><path class="cls-5" d="M46,182.75a.38.38,0,0,1-.37-.27.4.4,0,0,1,.23-.51l55.38-20.15a.4.4,0,0,1,.51.24.4.4,0,0,1-.24.51L46.11,182.72A.35.35,0,0,1,46,182.75Z"/><path class="cls-5" d="M47.47,186.86a.41.41,0,0,1-.38-.26.4.4,0,0,1,.24-.51l55.37-20.16a.41.41,0,0,1,.52.24.41.41,0,0,1-.24.51L47.61,186.84Z"/><path class="cls-5" d="M49,191a.4.4,0,0,1-.14-.78L96,173a.4.4,0,0,1,.27.75L49.1,191A.31.31,0,0,1,49,191Z"/><circle class="cls-6" cx="19.05" cy="120.03" r="1.25"/><circle class="cls-6" cx="26.8" cy="141.34" r="1.25"/><circle class="cls-6" cx="34.56" cy="162.64" r="1.25"/><circle class="cls-6" cx="42.31" cy="183.95" r="1.25"/><path class="cls-5" d="M29.09,134.55a.53.53,0,0,1-.17,0,.41.41,0,0,1-.2-.23L27,129.59a.39.39,0,0,1,0-.3.43.43,0,0,1,.23-.21l4.69-1.71a.4.4,0,0,1,.51.24l1.71,4.69a.4.4,0,0,1-.24.51l-4.69,1.71A.35.35,0,0,1,29.09,134.55Zm-1.19-4.86,1.43,3.94,3.94-1.43-1.43-3.94Z"/><path class="cls-5" d="M36.32,131.92a.41.41,0,0,1-.38-.27L34.24,127a.39.39,0,0,1,.23-.51l4.7-1.71a.39.39,0,0,1,.3,0,.38.38,0,0,1,.21.22l1.71,4.69a.42.42,0,0,1,0,.31.36.36,0,0,1-.22.2l-4.69,1.71Zm-1.2-4.86L36.56,131l3.94-1.43-1.44-3.94Z"/><path class="cls-5" d="M43.55,129.29a.41.41,0,0,1-.38-.27l-1.71-4.69a.39.39,0,0,1,0-.3.38.38,0,0,1,.22-.21l4.69-1.71a.4.4,0,0,1,.51.24L48.61,127a.42.42,0,0,1,0,.31.41.41,0,0,1-.23.2l-4.69,1.71A.31.31,0,0,1,43.55,129.29Zm-1.2-4.86,1.43,3.94,3.94-1.43L46.29,123Z"/><path class="cls-5" d="M50.77,126.66a.41.41,0,0,1-.37-.27l-1.71-4.69a.39.39,0,0,1,0-.3.39.39,0,0,1,.23-.21l4.69-1.71a.42.42,0,0,1,.31,0,.41.41,0,0,1,.2.23l1.71,4.69a.4.4,0,0,1-.24.51l-4.69,1.71A.35.35,0,0,1,50.77,126.66Zm-1.19-4.86L51,125.74,55,124.31l-1.43-3.94Z"/><path class="cls-5" d="M37,156.24a.41.41,0,0,1-.38-.26l-1.7-4.69a.39.39,0,0,1,.23-.51l4.7-1.71a.4.4,0,0,1,.51.24L42.06,154a.41.41,0,0,1-.24.51l-4.69,1.71Zm-1.2-4.85,1.44,3.94,3.94-1.43L39.73,150Z"/><path class="cls-5" d="M44.22,153.61a.33.33,0,0,1-.17,0,.38.38,0,0,1-.21-.22l-1.71-4.69a.42.42,0,0,1,0-.31.41.41,0,0,1,.22-.21l4.69-1.7a.39.39,0,0,1,.51.24l1.71,4.69a.39.39,0,0,1-.24.51l-4.69,1.71ZM43,148.76l1.43,3.94,3.94-1.43L47,147.33Z"/><path class="cls-5" d="M51.44,151a.4.4,0,0,1-.37-.26L49.36,146a.4.4,0,0,1,.24-.52l4.69-1.7a.39.39,0,0,1,.3,0,.39.39,0,0,1,.21.23l1.71,4.69a.39.39,0,0,1,0,.3.43.43,0,0,1-.23.21L51.58,151Zm-1.19-4.85,1.43,3.94,3.94-1.44-1.43-3.93Z"/><path class="cls-5" d="M58.67,148.35a.41.41,0,0,1-.38-.26l-1.7-4.69a.37.37,0,0,1,0-.31.41.41,0,0,1,.22-.21l4.7-1.7a.4.4,0,0,1,.51.24l1.71,4.69a.39.39,0,0,1,0,.3.38.38,0,0,1-.22.21l-4.69,1.71Zm-1.2-4.85,1.44,3.94L62.85,146l-1.44-3.93Z"/><path class="cls-5" d="M44.88,177.94a.32.32,0,0,1-.16,0,.4.4,0,0,1-.21-.23L42.8,173a.39.39,0,0,1,0-.3.38.38,0,0,1,.22-.21l4.69-1.71a.4.4,0,0,1,.51.24L50,175.69a.4.4,0,0,1-.24.52L45,177.91A.32.32,0,0,1,44.88,177.94Zm-1.19-4.85L45.12,177l3.94-1.44-1.43-3.94Z"/><path class="cls-5" d="M52.11,175.31a.38.38,0,0,1-.37-.27L50,170.35a.4.4,0,0,1,.24-.51L55,168.13a.4.4,0,0,1,.51.24l1.71,4.69a.41.41,0,0,1-.24.52l-4.69,1.7A.35.35,0,0,1,52.11,175.31Zm-1.19-4.85,1.43,3.93L56.29,173,54.86,169Z"/><path class="cls-5" d="M59.34,172.68a.41.41,0,0,1-.38-.27l-1.7-4.69a.35.35,0,0,1,0-.3.38.38,0,0,1,.22-.21l4.7-1.71a.4.4,0,0,1,.51.24l1.71,4.69a.42.42,0,0,1,0,.31.41.41,0,0,1-.22.21l-4.69,1.7Zm-1.2-4.85,1.44,3.93,3.94-1.43-1.44-3.94Z"/><path class="cls-5" d="M66.57,170.05a.47.47,0,0,1-.17,0,.43.43,0,0,1-.21-.23l-1.71-4.69a.4.4,0,0,1,.24-.51l4.69-1.71a.42.42,0,0,1,.31,0,.41.41,0,0,1,.21.22l1.7,4.69a.4.4,0,0,1-.24.52L66.7,170A.31.31,0,0,1,66.57,170.05Zm-1.2-4.86,1.43,3.94,3.94-1.43-1.43-3.94Z"/><path class="cls-5" d="M52.78,199.63a.39.39,0,0,1-.37-.26l-1.71-4.69a.39.39,0,0,1,.24-.51l4.69-1.71a.39.39,0,0,1,.51.24l1.71,4.69a.4.4,0,0,1-.24.51l-4.69,1.71A.34.34,0,0,1,52.78,199.63Zm-1.19-4.85L53,198.72,57,197.29l-1.43-3.94Z"/><path class="cls-5" d="M60,197a.41.41,0,0,1-.38-.26l-1.7-4.69a.37.37,0,0,1,0-.31.36.36,0,0,1,.22-.2l4.7-1.71a.39.39,0,0,1,.3,0,.43.43,0,0,1,.21.23l1.71,4.69a.41.41,0,0,1-.24.51L60.15,197A.36.36,0,0,1,60,197Zm-1.2-4.85,1.44,3.94,3.94-1.43-1.44-3.94Z"/><path class="cls-5" d="M67.24,194.37a.47.47,0,0,1-.17,0,.43.43,0,0,1-.21-.23l-1.71-4.69a.4.4,0,0,1,.24-.51l4.69-1.71a.42.42,0,0,1,.31,0,.41.41,0,0,1,.2.23l1.71,4.69a.39.39,0,0,1-.24.51l-4.69,1.71ZM66,189.52l1.43,3.94L71.41,192,70,188.09Z"/><path class="cls-5" d="M74.46,191.74a.4.4,0,0,1-.37-.26l-1.71-4.69a.42.42,0,0,1,0-.31.41.41,0,0,1,.23-.2l4.69-1.71a.39.39,0,0,1,.51.24l1.71,4.69a.39.39,0,0,1,0,.3.43.43,0,0,1-.23.21l-4.69,1.71Zm-1.19-4.85,1.43,3.94,3.94-1.43-1.43-3.94Z"/><path class="cls-5" d="M31.71,132.15a.54.54,0,0,1-.25-.06L29.06,131a.6.6,0,0,1-.29-.8.59.59,0,0,1,.79-.29l1.76.82,1.25-4.49a.6.6,0,0,1,.74-.41.61.61,0,0,1,.42.74l-1.44,5.17a.6.6,0,0,1-.33.38A.54.54,0,0,1,31.71,132.15Z"/><path class="cls-5" d="M54.1,148.74a.57.57,0,0,1-.25-.06l-2.4-1.12a.59.59,0,0,1-.29-.79.6.6,0,0,1,.8-.29l1.76.81L55,142.81a.6.6,0,0,1,1.16.32l-1.44,5.17a.6.6,0,0,1-.33.38A.54.54,0,0,1,54.1,148.74Z"/><path class="cls-5" d="M54.59,173a.54.54,0,0,1-.25-.06l-2.4-1.12a.59.59,0,0,1-.29-.79.58.58,0,0,1,.79-.29l1.76.81L55.45,167a.6.6,0,0,1,.74-.42.61.61,0,0,1,.42.74l-1.44,5.17a.6.6,0,0,1-.33.38A.54.54,0,0,1,54.59,173Z"/><path class="cls-5" d="M76.92,189.28a.54.54,0,0,1-.25-.06l-2.4-1.12a.6.6,0,0,1-.29-.8.59.59,0,0,1,.79-.29l1.76.82,1.25-4.49a.6.6,0,0,1,.74-.41.58.58,0,0,1,.41.73l-1.43,5.18a.6.6,0,0,1-.33.38A.57.57,0,0,1,76.92,189.28Z"/><rect class="cls-3" x="45.22" y="38.25" width="78" height="115.44" rx="2.94" transform="translate(-7.69 7.34) rotate(-4.77)"/><rect class="cls-4" x="46.22" y="39.25" width="78" height="115.44" rx="2.94" transform="translate(-7.77 7.43) rotate(-4.77)"/><path class="cls-5" d="M47.07,50.72a.4.4,0,0,1-.4-.37.39.39,0,0,1,.36-.43l21.23-1.77a.4.4,0,0,1,.43.36.39.39,0,0,1-.36.43L47.1,50.72Z"/><path class="cls-5" d="M47.39,54.53a.4.4,0,0,1,0-.8l15-1.25a.4.4,0,0,1,.43.36.4.4,0,0,1-.37.44l-15,1.25Z"/><path class="cls-5" d="M53.32,62.7a.4.4,0,0,1,0-.8L112,57a.39.39,0,0,1,.43.36.4.4,0,0,1-.37.43L53.35,62.7Z"/><path class="cls-5" d="M53.68,67.06a.4.4,0,0,1,0-.8l58.72-4.9a.39.39,0,0,1,.43.36.4.4,0,0,1-.36.44l-58.72,4.9Z"/><path class="cls-5" d="M54.05,71.43a.4.4,0,0,1-.4-.37.39.39,0,0,1,.37-.43l50-4.18a.41.41,0,0,1,.43.37.4.4,0,0,1-.37.43l-50,4.17Z"/><path class="cls-5" d="M55.2,85.16a.39.39,0,0,1-.4-.36.4.4,0,0,1,.36-.44l58.72-4.9a.39.39,0,0,1,.43.36.4.4,0,0,1-.36.44l-58.72,4.9Z"/><path class="cls-5" d="M55.56,89.53a.4.4,0,0,1-.4-.37.4.4,0,0,1,.37-.43l58.72-4.91a.41.41,0,0,1,.43.37.4.4,0,0,1-.37.43l-58.72,4.9Z"/><path class="cls-5" d="M55.92,93.89a.4.4,0,0,1,0-.8l50-4.18a.4.4,0,0,1,.43.37.39.39,0,0,1-.36.43L56,93.89Z"/><path class="cls-5" d="M57.08,107.68a.4.4,0,0,1,0-.8l58.72-4.9a.4.4,0,0,1,.07.79l-58.72,4.91Z"/><path class="cls-5" d="M57.44,112a.39.39,0,0,1-.4-.36.41.41,0,0,1,.37-.44l58.72-4.9a.41.41,0,0,1,.43.37.4.4,0,0,1-.37.43L57.47,112Z"/><path class="cls-5" d="M57.8,116.41a.4.4,0,0,1,0-.8l50-4.18a.4.4,0,0,1,.07.8l-50,4.17Z"/><path class="cls-5" d="M59,130.76a.39.39,0,0,1-.39-.36A.4.4,0,0,1,59,130l58.72-4.9a.4.4,0,0,1,.43.37.39.39,0,0,1-.36.43L59,130.76Z"/><path class="cls-5" d="M59.37,135.13a.4.4,0,0,1-.4-.37.39.39,0,0,1,.36-.43l58.72-4.91a.4.4,0,1,1,.07.8l-58.72,4.9Z"/><path class="cls-5" d="M59.73,139.49a.4.4,0,0,1,0-.8l50-4.18a.4.4,0,0,1,.43.37.39.39,0,0,1-.36.43l-50,4.18Z"/><circle class="cls-6" cx="49.39" cy="63.16" r="1.25"/><circle class="cls-6" cx="51.28" cy="85.76" r="1.25"/><circle class="cls-6" cx="53.17" cy="108.35" r="1.25"/><circle class="cls-6" cx="55.05" cy="130.95" r="1.25"/><path class="cls-5" d="M55.38,79.82a.4.4,0,0,1-.4-.37l-.42-5a.4.4,0,0,1,.37-.43l5-.42a.4.4,0,0,1,.43.37l.42,5a.42.42,0,0,1-.09.29.35.35,0,0,1-.28.14l-5,.42Zm0-5L55.74,79l4.18-.35-.35-4.18Z"/><path class="cls-5" d="M63,79.18a.41.41,0,0,1-.26-.09.42.42,0,0,1-.14-.28l-.41-5a.39.39,0,0,1,.36-.43l5-.42a.4.4,0,0,1,.29.1.38.38,0,0,1,.14.27l.41,5a.39.39,0,0,1-.36.43l-5,.42Zm0-5,.34,4.18L67.58,78l-.35-4.18Z"/><path class="cls-5" d="M70.7,78.54a.38.38,0,0,1-.25-.09.35.35,0,0,1-.14-.28l-.42-5a.4.4,0,0,1,.37-.43l5-.42a.41.41,0,0,1,.43.37l.42,5a.4.4,0,0,1-.37.43l-5,.42Zm0-5,.35,4.18,4.18-.35-.35-4.18Z"/><path class="cls-5" d="M78.37,77.9a.39.39,0,0,1-.26-.09.42.42,0,0,1-.14-.28l-.42-5a.38.38,0,0,1,.1-.29.4.4,0,0,1,.27-.14l5-.42a.41.41,0,0,1,.44.37l.41,5a.39.39,0,0,1-.36.43l-5,.42Zm0-5,.35,4.18,4.18-.35-.35-4.18Z"/><path class="cls-5" d="M57.3,102.83a.4.4,0,0,1-.4-.37l-.42-5a.38.38,0,0,1,.1-.29.35.35,0,0,1,.27-.14l5-.42a.41.41,0,0,1,.44.37l.41,5a.38.38,0,0,1-.09.29.42.42,0,0,1-.27.14l-5,.42Zm0-5,.35,4.18,4.18-.35-.35-4.18Z"/><path class="cls-5" d="M65,102.19a.4.4,0,0,1-.4-.37l-.41-5a.39.39,0,0,1,.36-.43l5-.42a.41.41,0,0,1,.43.37l.41,5a.39.39,0,0,1-.36.43l-5,.42Zm0-5,.35,4.18L69.5,101l-.34-4.18Z"/><path class="cls-5" d="M72.62,101.55a.39.39,0,0,1-.39-.37l-.42-5a.4.4,0,0,1,.37-.43l5-.42a.4.4,0,0,1,.43.37l.42,5a.4.4,0,0,1-.37.43l-5,.42Zm0-5,.35,4.18,4.18-.35-.35-4.18Z"/><path class="cls-5" d="M80.29,100.91a.4.4,0,0,1-.4-.37l-.41-5a.38.38,0,0,1,.09-.29.36.36,0,0,1,.27-.14l5-.42a.39.39,0,0,1,.29.09.42.42,0,0,1,.14.28l.41,5a.39.39,0,0,1-.36.43l-5,.42Zm0-5,.34,4.18,4.18-.35-.35-4.18Z"/><path class="cls-5" d="M59.22,125.84a.4.4,0,0,1-.4-.37l-.42-5a.42.42,0,0,1,.37-.44l5-.41a.4.4,0,0,1,.44.36l.41,5a.39.39,0,0,1-.36.43l-5,.42Zm0-5,.35,4.18,4.18-.35-.35-4.18Z"/><path class="cls-5" d="M66.88,125.2a.44.44,0,0,1-.26-.1.4.4,0,0,1-.14-.27l-.41-5a.4.4,0,0,1,.36-.44l5-.41a.39.39,0,0,1,.43.36l.42,5a.45.45,0,0,1-.1.29.4.4,0,0,1-.27.14l-5,.42Zm0-5,.35,4.18,4.18-.35-.35-4.18Z"/><path class="cls-5" d="M74.55,124.56a.41.41,0,0,1-.4-.37l-.42-5a.41.41,0,0,1,.37-.44l5-.41a.39.39,0,0,1,.43.36l.42,5a.4.4,0,0,1-.37.43l-5,.42Zm0-5,.35,4.18,4.18-.35-.35-4.18Z"/><path class="cls-5" d="M82.21,123.92a.4.4,0,0,1-.4-.37l-.41-5a.4.4,0,0,1,.36-.44l5-.41a.4.4,0,0,1,.43.36l.41,5a.39.39,0,0,1-.36.43l-5,.42Zm0-5,.35,4.17,4.17-.34-.35-4.18Z"/><path class="cls-5" d="M61.14,148.84a.39.39,0,0,1-.4-.36l-.41-5a.39.39,0,0,1,.09-.29.42.42,0,0,1,.27-.14l5-.41a.4.4,0,0,1,.43.36l.41,5a.39.39,0,0,1-.09.29.42.42,0,0,1-.27.14l-5,.41Zm0-5,.35,4.17,4.17-.35-.35-4.17Z"/><path class="cls-5" d="M68.8,148.2a.38.38,0,0,1-.39-.36l-.42-5a.4.4,0,0,1,.37-.43l5-.41a.4.4,0,0,1,.43.36l.42,5a.4.4,0,0,1-.1.29.38.38,0,0,1-.27.14l-5,.41Zm0-5,.35,4.17,4.18-.35L73,142.85Z"/><path class="cls-5" d="M76.47,147.56a.39.39,0,0,1-.4-.36l-.42-5a.41.41,0,0,1,.37-.43l5-.41a.41.41,0,0,1,.3.09.42.42,0,0,1,.14.27l.41,5a.39.39,0,0,1-.36.43l-5,.41Zm0-5,.35,4.17,4.18-.35-.35-4.17Z"/><path class="cls-5" d="M84.13,146.92a.4.4,0,0,1-.4-.36l-.41-5a.39.39,0,0,1,.36-.43l5-.41a.39.39,0,0,1,.29.09.42.42,0,0,1,.14.27l.42,5a.41.41,0,0,1-.37.43l-5,.41Zm0-5,.35,4.17,4.18-.35-.35-4.17Z"/><path class="cls-5" d="M81.59,76.58a.62.62,0,0,1-.39-.14l-2-1.71a.6.6,0,1,1,.78-.92l1.48,1.25,2.38-4a.6.6,0,0,1,.82-.21.59.59,0,0,1,.21.82l-2.74,4.62a.62.62,0,0,1-.42.28Z"/><path class="cls-5" d="M60.39,101.52a.57.57,0,0,1-.38-.14l-2-1.71a.6.6,0,0,1,.78-.92L60.24,100l2.38-4a.6.6,0,1,1,1,.61l-2.74,4.62a.6.6,0,0,1-.42.28Z"/><path class="cls-5" d="M77.57,123.25a.57.57,0,0,1-.38-.14l-2-1.71a.6.6,0,1,1,.78-.92l1.48,1.26,2.38-4a.6.6,0,1,1,1,.62L78.09,123a.6.6,0,0,1-.42.28Z"/><path class="cls-5" d="M71.9,146.89a.62.62,0,0,1-.39-.14l-2-1.71a.59.59,0,0,1-.07-.84.58.58,0,0,1,.84-.07l1.48,1.25,2.39-4a.6.6,0,0,1,1,.62l-2.75,4.61a.61.61,0,0,1-.41.29Z"/><rect class="cls-3" x="83.02" y="94.45" width="78" height="115.44" rx="2.94" transform="translate(10.14 -7.6) rotate(3.72)"/><rect class="cls-4" x="84.02" y="95.45" width="78" height="115.44" rx="2.94" transform="translate(10.21 -7.67) rotate(3.72)"/><path class="cls-5" d="M113.43,103.18h0l-21.26-1.38a.39.39,0,0,1-.37-.42.41.41,0,0,1,.43-.38l21.25,1.39a.39.39,0,0,1,.37.42A.4.4,0,0,1,113.43,103.18Z"/><path class="cls-5" d="M106.93,106.58h0l-15-1a.41.41,0,0,1-.38-.43.4.4,0,0,1,.43-.37l15,1a.42.42,0,0,1,.38.43A.4.4,0,0,1,106.93,106.58Z"/><path class="cls-5" d="M155.39,118.39h0l-58.8-3.83a.4.4,0,1,1,.05-.79l58.8,3.82a.4.4,0,0,1,.37.43A.4.4,0,0,1,155.39,118.39Z"/><path class="cls-5" d="M155.11,122.76h0l-58.8-3.83a.39.39,0,0,1-.37-.42.41.41,0,0,1,.42-.38l58.8,3.83a.42.42,0,0,1,.38.43A.4.4,0,0,1,155.11,122.76Z"/><path class="cls-5" d="M146.09,126.56h0L96,123.3a.4.4,0,0,1-.38-.42.42.42,0,0,1,.43-.38l50.07,3.26a.4.4,0,0,1,.37.43A.4.4,0,0,1,146.09,126.56Z"/><path class="cls-5" d="M153.93,140.89h0l-58.8-3.82a.41.41,0,0,1-.37-.43.39.39,0,0,1,.42-.37l58.8,3.83a.4.4,0,0,1,.38.42A.41.41,0,0,1,153.93,140.89Z"/><path class="cls-5" d="M153.64,145.25h0l-58.8-3.82a.42.42,0,0,1-.38-.43.4.4,0,0,1,.43-.37l58.8,3.83a.39.39,0,0,1,.37.42A.4.4,0,0,1,153.64,145.25Z"/><path class="cls-5" d="M144.63,149.06h0L94.53,145.8a.41.41,0,0,1-.37-.43.4.4,0,0,1,.43-.37l50.06,3.26a.4.4,0,0,1,.38.42A.41.41,0,0,1,144.63,149.06Z"/><path class="cls-5" d="M152.46,163.43h0l-58.79-3.82a.4.4,0,1,1,0-.8l58.8,3.82a.41.41,0,0,1,.37.43A.4.4,0,0,1,152.46,163.43Z"/><path class="cls-5" d="M152.18,167.8h0L93.35,164a.4.4,0,0,1,.05-.8L152.2,167a.42.42,0,0,1,.38.43A.4.4,0,0,1,152.18,167.8Z"/><path class="cls-5" d="M143.16,171.6h0l-50.07-3.25a.42.42,0,0,1-.38-.43.4.4,0,0,1,.43-.37l50.07,3.26a.4.4,0,0,1,0,.79Z"/><path class="cls-5" d="M151,186.55h0l-58.8-3.83a.39.39,0,0,1-.37-.42.41.41,0,0,1,.42-.38l58.8,3.83a.4.4,0,0,1,0,.8Z"/><path class="cls-5" d="M150.67,190.92h0l-58.8-3.83a.4.4,0,0,1-.38-.42.41.41,0,0,1,.43-.38l58.8,3.83a.39.39,0,0,1,.37.42A.4.4,0,0,1,150.67,190.92Z"/><path class="cls-5" d="M141.66,194.72h0l-50.07-3.26a.4.4,0,0,1,0-.8l50.07,3.26a.4.4,0,0,1,0,.8Z"/><circle class="cls-6" cx="92.58" cy="114.44" r="1.25"/><circle class="cls-6" cx="91.11" cy="137.07" r="1.25"/><circle class="cls-6" cx="89.64" cy="159.69" r="1.25"/><circle class="cls-6" cx="88.16" cy="182.32" r="1.25"/><path class="cls-5" d="M101.08,132.13h0l-5-.33a.35.35,0,0,1-.27-.13.4.4,0,0,1-.1-.29l.32-5a.42.42,0,0,1,.14-.28.38.38,0,0,1,.29-.1l5,.33a.39.39,0,0,1,.37.42l-.32,5A.4.4,0,0,1,101.08,132.13ZM96.52,131l4.18.27.28-4.18-4.19-.27Z"/><path class="cls-5" d="M108.75,132.63h0l-5-.33a.39.39,0,0,1-.37-.42l.33-5a.4.4,0,0,1,.42-.38l5,.33a.37.37,0,0,1,.28.13.45.45,0,0,1,.1.29l-.33,5A.4.4,0,0,1,108.75,132.63Zm-4.55-1.1,4.18.27.27-4.18-4.18-.27Z"/><path class="cls-5" d="M116.43,133.13h0l-5-.33a.39.39,0,0,1-.37-.42l.32-5a.4.4,0,0,1,.42-.38l5,.33a.37.37,0,0,1,.27.13.4.4,0,0,1,.1.29l-.32,5a.41.41,0,0,1-.4.38Zm-4.56-1.1,4.18.27.28-4.18-4.19-.27Z"/><path class="cls-5" d="M124.1,133.63h0l-5-.33a.39.39,0,0,1-.37-.42l.32-5a.41.41,0,0,1,.43-.37l5,.33a.39.39,0,0,1,.37.42l-.32,5A.4.4,0,0,1,124.1,133.63Zm-4.56-1.1,4.19.27.27-4.18-4.18-.27Z"/><path class="cls-5" d="M99.58,155.17h0l-5-.33a.35.35,0,0,1-.27-.13.4.4,0,0,1-.1-.29l.32-5a.42.42,0,0,1,.43-.38l5,.33a.37.37,0,0,1,.27.13.4.4,0,0,1,.1.29l-.32,5A.41.41,0,0,1,99.58,155.17ZM95,154.07l4.18.27.28-4.18-4.19-.27Z"/><path class="cls-5" d="M107.25,155.67h0l-5-.33a.39.39,0,0,1-.37-.42l.33-5a.39.39,0,0,1,.42-.37l5,.33a.37.37,0,0,1,.28.13.45.45,0,0,1,.1.29l-.33,5a.41.41,0,0,1-.13.28A.45.45,0,0,1,107.25,155.67Zm-4.55-1.1,4.18.27.27-4.18-4.18-.27Z"/><path class="cls-5" d="M114.93,156.17h0l-5-.33a.39.39,0,0,1-.37-.42l.32-5a.4.4,0,0,1,.43-.37l5,.33a.39.39,0,0,1,.37.42l-.32,5A.41.41,0,0,1,114.93,156.17Zm-4.56-1.1,4.18.27.28-4.18-4.19-.27Z"/><path class="cls-5" d="M122.6,156.67h0l-5-.32a.39.39,0,0,1-.37-.42l.32-5a.42.42,0,0,1,.14-.27.38.38,0,0,1,.29-.1l5,.32a.4.4,0,0,1,.37.43l-.32,5a.46.46,0,0,1-.13.28A.45.45,0,0,1,122.6,156.67Zm-4.55-1.1,4.18.27.27-4.18-4.18-.28Z"/><path class="cls-5" d="M98.08,178.21h0l-5-.33a.41.41,0,0,1-.27-.13.4.4,0,0,1-.1-.29l.32-5a.41.41,0,0,1,.43-.37l5,.33a.37.37,0,0,1,.27.13.38.38,0,0,1,.1.29l-.32,5A.41.41,0,0,1,98.08,178.21Zm-4.56-1.1,4.19.27L98,173.2l-4.19-.27Z"/><path class="cls-5" d="M105.75,178.71h0l-5-.33a.41.41,0,0,1-.28-.13.45.45,0,0,1-.1-.29l.33-5a.4.4,0,0,1,.42-.37l5,.33a.4.4,0,0,1,.38.42l-.33,5a.37.37,0,0,1-.13.28A.45.45,0,0,1,105.75,178.71Zm-4.55-1.1,4.18.27.27-4.18-4.18-.27Z"/><path class="cls-5" d="M113.43,179.21h0l-5-.32a.39.39,0,0,1-.37-.42l.32-5a.41.41,0,0,1,.43-.37l5,.32a.4.4,0,0,1,.37.43l-.32,5A.41.41,0,0,1,113.43,179.21Zm-4.56-1.1,4.18.27.28-4.18-4.19-.28Z"/><path class="cls-5" d="M121.1,179.7h0l-5-.32a.4.4,0,0,1-.37-.43l.33-5a.39.39,0,0,1,.42-.37l5,.32a.42.42,0,0,1,.38.43l-.33,5A.4.4,0,0,1,121.1,179.7Zm-4.55-1.09,4.18.27.27-4.18-4.18-.28Z"/><path class="cls-5" d="M96.58,201.25h0l-5-.32a.39.39,0,0,1-.37-.42l.32-5a.41.41,0,0,1,.43-.37l5,.32a.4.4,0,0,1,.27.14.38.38,0,0,1,.1.29l-.32,5A.41.41,0,0,1,96.58,201.25ZM92,200.15l4.19.27.27-4.18L92.3,196Z"/><path class="cls-5" d="M104.25,201.75h0l-5-.32a.4.4,0,0,1-.38-.43l.33-5a.4.4,0,0,1,.42-.37l5,.32a.42.42,0,0,1,.28.14.43.43,0,0,1,.1.29l-.33,5a.37.37,0,0,1-.13.28A.45.45,0,0,1,104.25,201.75Zm-4.55-1.1,4.18.27.27-4.18-4.18-.28Z"/><path class="cls-5" d="M111.93,202.24h0l-5-.32a.4.4,0,0,1-.37-.43l.32-5a.41.41,0,0,1,.43-.37l5,.32a.4.4,0,0,1,.37.43l-.32,5A.4.4,0,0,1,111.93,202.24Zm-4.56-1.09,4.18.27.28-4.18-4.19-.28Z"/><path class="cls-5" d="M119.6,202.74h0l-5-.32a.42.42,0,0,1-.28-.14.43.43,0,0,1-.1-.29l.33-5a.39.39,0,0,1,.42-.37l5,.32a.42.42,0,0,1,.38.43l-.33,5a.39.39,0,0,1-.13.27A.39.39,0,0,1,119.6,202.74Zm-4.55-1.09,4.18.27.27-4.18-4.18-.28Z"/><path class="cls-5" d="M107,131.46a.61.61,0,0,1-.45-.2l-1.74-2a.6.6,0,0,1,0-.85.61.61,0,0,1,.85.05l1.28,1.46,3-3.61a.6.6,0,0,1,.84-.08.59.59,0,0,1,.09.84l-3.4,4.16a.58.58,0,0,1-.45.22Z"/><path class="cls-5" d="M121,155.51a.61.61,0,0,1-.45-.2l-1.75-2a.61.61,0,0,1,.06-.85.6.6,0,0,1,.85.06L121,154l2.94-3.6a.6.6,0,1,1,.93.76l-3.39,4.15a.58.58,0,0,1-.46.22Z"/><path class="cls-5" d="M96.49,177.05a.61.61,0,0,1-.45-.2l-1.74-2a.6.6,0,1,1,.9-.79l1.28,1.45,3-3.6a.59.59,0,0,1,.84-.09.6.6,0,0,1,.09.85L97,176.83a.58.58,0,0,1-.46.22Z"/><path class="cls-5" d="M109.94,201.06a.59.59,0,0,1-.45-.2l-1.75-2a.6.6,0,1,1,.9-.79l1.28,1.46,3-3.61a.6.6,0,0,1,.85-.09.61.61,0,0,1,.08.85l-3.4,4.15a.56.56,0,0,1-.45.22Z"/></g><circle class="cls-7" cx="99.42" cy="18.5" r="17.5"/><text class="cls-8" transform="translate(90.66 26.86)">4</text></g></g></g></svg>