<svg xmlns="http://www.w3.org/2000/svg" viewBox="0 0 200 217.49"><defs><style>.cls-1,.cls-8{fill:#48c4da;}.cls-2{fill:#4d4d4d;}.cls-3,.cls-9{fill:#fff;}.cls-4{fill:#7bbb54;}.cls-5{fill:#facc00;}.cls-6{fill:#f48040;}.cls-7{fill:#43af9a;}.cls-8{stroke:#fff;stroke-miterlimit:10;stroke-width:2px;}.cls-9{font-size:24px;font-family:Poppins-Bold, Poppins;font-weight:700;}</style></defs><g id="Capa_2" data-name="Capa 2"><g id="propuesta_página_nueva" data-name="propuesta página nueva"><g id="funcionamiento"><circle class="cls-1" cx="100" cy="117.49" r="100"/><rect class="cls-2" x="52.28" y="39.49" width="95.44" height="160" rx="6.15"/><rect class="cls-3" x="28" y="74.52" width="144.08" height="84.75" rx="3.85" transform="translate(216.94 16.85) rotate(90)"/><path class="cls-1" d="M142.42,51.14H57.67V48.23A3.37,3.37,0,0,1,61,44.85h78a3.37,3.37,0,0,1,3.37,3.38Z"/><ellipse class="cls-3" cx="69.41" cy="48.05" rx="1.01" ry="1"/><ellipse class="cls-3" cx="65.23" cy="48.05" rx="1.01" ry="1"/><ellipse class="cls-3" cx="61.05" cy="48.05" rx="1.01" ry="1"/><path class="cls-3" d="M128.26,49h-2.9a.3.3,0,0,1-.3-.3.29.29,0,0,1,.3-.3h2.9a.3.3,0,0,1,.3.3A.31.31,0,0,1,128.26,49Z"/><path class="cls-3" d="M130.82,49.35a.3.3,0,0,1-.21-.09.29.29,0,0,1,0-.42l2-2a.31.31,0,0,1,.42,0,.3.3,0,0,1,0,.43l-2,2A.31.31,0,0,1,130.82,49.35Z"/><path class="cls-3" d="M132.83,49.35a.29.29,0,0,1-.21-.09l-2-2a.3.3,0,0,1,0-.43.32.32,0,0,1,.43,0l2,2a.3.3,0,0,1-.21.51Z"/><path class="cls-3" d="M137.63,49.35H135.4a.29.29,0,0,1-.3-.3V46.82a.3.3,0,0,1,.3-.3h2.23a.31.31,0,0,1,.3.3v2.23A.3.3,0,0,1,137.63,49.35Zm-1.93-.6h1.63V47.12H135.7Z"/><circle class="cls-4" cx="69.81" cy="62.94" r="8.14"/><ellipse class="cls-3" cx="69.87" cy="60.21" rx="2.27" ry="2.76"/><path class="cls-3" d="M65.21,68.39h9.33a4.67,4.67,0,0,0-9.33,0Z"/><rect class="cls-4" x="81.86" y="57.56" width="18.85" height="3.05" rx="1.52"/><rect class="cls-4" x="81.86" y="65.16" width="37.92" height="3.05" rx="1.52"/><path class="cls-5" d="M71.68,93.29a.32.32,0,0,1-.25-.12.33.33,0,0,1,0-.47l9.22-7.79a.34.34,0,0,1,.45,0L88.39,92l15-11.92a.32.32,0,0,1,.44,0l5.27,5.2,9-.06,7.6-6.78a.33.33,0,1,1,.44.5l-7.69,6.86a.31.31,0,0,1-.22.09l-9.29.06h0a.33.33,0,0,1-.23-.09l-5.15-5.1-15,11.92a.32.32,0,0,1-.44,0l-7.25-7-9,7.59A.35.35,0,0,1,71.68,93.29Z"/><path class="cls-5" d="M80.91,84.09a1.15,1.15,0,1,0,1.14,1.15A1.15,1.15,0,0,0,80.91,84.09Z"/><path class="cls-5" d="M88.28,91.33a1.15,1.15,0,1,0,1.15,1.15A1.14,1.14,0,0,0,88.28,91.33Z"/><path class="cls-5" d="M103.55,79.2a1.15,1.15,0,1,0,0,2.29,1.15,1.15,0,0,0,0-2.29Z"/><path class="cls-5" d="M109.05,84.48a1.15,1.15,0,1,0,1.14,1.15A1.15,1.15,0,0,0,109.05,84.48Z"/><path class="cls-5" d="M118.07,84.4a1.15,1.15,0,1,0,1.15,1.14A1.14,1.14,0,0,0,118.07,84.4Z"/><path class="cls-6" d="M75.39,108.22A9.64,9.64,0,1,0,85,117.85,9.63,9.63,0,0,0,75.39,108.22Zm0,16a6.36,6.36,0,1,1,6.35-6.36A6.36,6.36,0,0,1,75.39,124.21Z"/><path class="cls-5" d="M65.75,117.85a9,9,0,0,0,.1,1.38h3.33a6.21,6.21,0,0,1-.15-1.38,6.35,6.35,0,0,1,6.36-6.35h.08v-3.28h-.08A9.63,9.63,0,0,0,65.75,117.85Z"/><rect class="cls-4" x="87.5" y="119.71" width="32.94" height="3.47" rx="1.73"/><rect class="cls-4" x="87.5" y="111.92" width="17.8" height="3.47" rx="1.73"/><circle class="cls-7" cx="89.27" cy="142.01" r="2.48"/><rect class="cls-7" x="94.49" y="140.15" width="40.75" height="3.63" rx="1.81"/><circle class="cls-7" cx="89.27" cy="154.55" r="2.48"/><rect class="cls-7" x="94.49" y="152.69" width="40.75" height="3.63" rx="1.81"/><path class="cls-7" d="M85,155.39H75.92a.4.4,0,0,1-.4-.4V130.7a.4.4,0,0,1,.8,0v23.89H85a.4.4,0,0,1,0,.8Z"/><path class="cls-7" d="M85,142.57h-8.7a.4.4,0,1,1,0-.8H85a.4.4,0,1,1,0,.8Z"/><path class="cls-7" d="M124.4,101.34h0l-54,0a.4.4,0,0,1-.4-.4V77.82a.4.4,0,0,1,.8,0v22.67l53.6.05a.4.4,0,0,1,0,.8Z"/><path class="cls-7" d="M71.69,77.63l-1.15-1.14a.18.18,0,0,0-.25,0l-1.15,1.14a.18.18,0,0,0,.13.31h2.29A.18.18,0,0,0,71.69,77.63Z"/><path class="cls-7" d="M124.55,102.23l1.14-1.14a.19.19,0,0,0,0-.26l-1.14-1.14a.18.18,0,0,0-.31.12v2.3A.18.18,0,0,0,124.55,102.23Z"/><circle class="cls-1" cx="100" cy="174.62" r="11.15"/><path class="cls-3" d="M100,181.2a6.58,6.58,0,0,1-6-9.39,1,1,0,0,1,1.81.86,4.52,4.52,0,0,0-.44,2,4.58,4.58,0,1,0,4.58-4.57,1,1,0,0,1,0-2,6.58,6.58,0,1,1,0,13.15Z"/><polygon class="cls-3" points="100.76 171.64 96.27 169.04 100.76 166.45 100.76 171.64"/><circle class="cls-8" cx="99.78" cy="18.5" r="17.5"/><text class="cls-9" transform="translate(92.34 26.86)">5</text></g></g></g></svg>