<?xml version="1.0" encoding="iso-8859-1"?>
<!-- Generator: Adobe Illustrator 19.1.0, SVG Export Plug-In . SVG Version: 6.00 Build 0)  -->
<svg version="1.1" id="Capa_1" xmlns="http://www.w3.org/2000/svg" xmlns:xlink="http://www.w3.org/1999/xlink" x="0px" y="0px"
	 viewBox="0 0 61.5 61.5" style="enable-background:new 0 0 61.5 61.5;" xml:space="preserve">
<g>
	<g id="group-29svg">
		<path id="path-1_21_" style="fill:#81BDA4;" d="M27.853,58.623c-1.764,0-3.53-0.166-5.25-0.494
			c-0.813-0.156-1.347-0.942-1.192-1.756c0.156-0.815,0.946-1.349,1.755-1.194c1.534,0.294,3.111,0.442,4.687,0.442
			c0.829,0,1.5,0.672,1.5,1.501S28.682,58.623,27.853,58.623z M18.094,56.756c-0.186,0-0.373-0.034-0.556-0.107
			c-1.632-0.651-3.21-1.463-4.693-2.414c-0.698-0.447-0.901-1.375-0.453-2.074c0.446-0.699,1.375-0.901,2.072-0.454
			c1.322,0.848,2.73,1.573,4.185,2.154c0.77,0.307,1.145,1.18,0.838,1.95C19.253,56.399,18.689,56.756,18.094,56.756z M9.725,51.392
			c-0.372,0-0.743-0.137-1.033-0.412c-1.273-1.208-2.441-2.546-3.469-3.975c-0.484-0.673-0.332-1.611,0.341-2.095
			c0.671-0.485,1.611-0.332,2.094,0.341c0.918,1.277,1.961,2.472,3.099,3.55c0.6,0.571,0.626,1.521,0.056,2.123
			C10.518,51.235,10.122,51.392,9.725,51.392z M3.926,43.316c-0.567,0-1.109-0.322-1.363-0.871c-0.737-1.595-1.326-3.271-1.75-4.981
			c-0.199-0.805,0.291-1.618,1.095-1.818c0.814-0.2,1.618,0.291,1.817,1.096c0.378,1.525,0.903,3.019,1.561,4.442
			c0.348,0.753,0.021,1.645-0.731,1.993C4.35,43.272,4.137,43.316,3.926,43.316z M1.536,33.664c-0.793,0-1.455-0.622-1.497-1.423
			C0.014,31.747,0,31.25,0,30.75c0-0.829,0.672-1.501,1.5-1.501S3,29.921,3,30.75c0,0.448,0.012,0.893,0.035,1.335
			c0.043,0.827-0.593,1.533-1.42,1.577C1.589,33.663,1.562,33.664,1.536,33.664z"/>
		<path id="path-2_21_" style="fill:#E56A77;" d="M1.5,32.251c-0.828,0-1.5-0.672-1.5-1.501C0,15.381,12.495,2.877,27.853,2.877
			c13.896,0,25.763,10.378,27.605,24.14c0.11,0.822-0.466,1.577-1.287,1.687c-0.821,0.11-1.576-0.466-1.686-1.288
			C50.842,15.138,40.253,5.879,27.853,5.879C14.149,5.879,3,17.036,3,30.75C3,31.579,2.328,32.251,1.5,32.251z"/>
		<path id="path-3_20_" style="fill:#E56A77;" d="M54.619,21.384l4.669-1.489c1.106-0.353,2.287,0.53,2.208,1.689
			c-0.019,0.276-0.082,0.589-0.217,0.851l-4.253,8.23c-0.427,0.827-1.445,1.147-2.271,0.719l-8.23-4.263
			c-0.261-0.136-0.488-0.337-0.664-0.551c-0.733-0.9-0.281-2.305,0.824-2.657l4.921-1.569L54.619,21.384z"/>
	</g>
</g>
<g>
</g>
<g>
</g>
<g>
</g>
<g>
</g>
<g>
</g>
<g>
</g>
<g>
</g>
<g>
</g>
<g>
</g>
<g>
</g>
<g>
</g>
<g>
</g>
<g>
</g>
<g>
</g>
<g>
</g>
</svg>
