<svg id="_x33_0" enable-background="new 0 0 63.737 62.803" height="512" viewBox="0 0 63.737 62.803" width="512" xmlns="http://www.w3.org/2000/svg"><g><g><g><circle cx="31.869" cy="7.803" fill="#ff826e" r="2"/></g><g><circle cx="39.869" cy="7.803" fill="#ff826e" r="2"/></g><g><circle cx="23.869" cy="7.803" fill="#ff826e" r="2"/></g><g><path d="m53.869 1.803 8 12h-4v23 2 4 2 17h-8v-28c0-.86-.27-1.65-.74-2.31l.49-2.45c.17-.83.25-1.66.25-2.5v-12.74h-4z" fill="#ffeaa7"/></g><g><path d="m9.869 1.803 8 12h-4v9.69c0 .2.01.41.03.62l.81 7.24c-.53.68-.84 1.53-.84 2.45v28h-8v-17-2-4-2-23h-4z" fill="#ffeaa7"/></g><g><path d="m49.869 26.543c0 .84-.08 1.67-.25 2.5l-.49 2.45c-.72-1.02-1.91-1.69-3.26-1.69h-2v-.02c0-1.2-.72-2.29-1.82-2.76l-11.22-4.81c-.63-.27-1.31-.41-2-.41-1.16 0-2.26.4-3.12 1.07-.87.68-1.52 1.64-1.8 2.77l-.04.16c-1.1 0-2.1.45-2.83 1.17-.72.73-1.17 1.73-1.17 2.83h-2c-1.29 0-2.43.61-3.16 1.55l-.81-7.24c-.02-.21-.03-.42-.03-.62 0-3.14 2.55-5.69 5.69-5.69h.31c1.23-2.45 3.73-4 6.47-4h10.79c3.52 0 6.7 1.42 9.01 3.73s3.73 5.49 3.73 9.01z" fill="#656d78"/></g><g><path d="m30.869 51.803h2l3 10h-8z" fill="#ff826e"/></g><g><path d="m34.069 50.003-1.2 1.8h-2l-1.2-1.8 2.2-2.2z" fill="#fc6e51"/></g><g><path d="m35.869 51.803 2-4.66c4.73 2.25 8 7.07 8 12.66v2h-6-4l-3-10 1.2-1.8z" fill="#e6e9ed"/></g><g><path d="m27.869 51.803 1.8-1.8 1.2 1.8-3 10h-4-6v-2c0-5.59 3.27-10.41 8.01-12.65z" fill="#e6e9ed"/></g><g><path d="m33.869 47.803c1.38 0 2.7-.28 3.89-.79l.11.13-2 4.66-1.8-1.8-2.2-2.2z" fill="#ccd1d9"/></g><g><path d="m29.669 50.003-1.8 1.8-1.99-4.65.07-.15c1.2.52 2.53.8 3.92.8h2z" fill="#ccd1d9"/></g><g><path d="m49.129 31.493c.47.66.74 1.45.74 2.31 0 1.1-.45 2.1-1.17 2.83-.73.72-1.73 1.17-2.83 1.17h-2v-3-5h2c1.35 0 2.54.67 3.26 1.69z" fill="#f0d0b4"/></g><g><path d="m43.869 34.803v3c0 4.14-2.52 7.7-6.11 9.21-1.19.51-2.51.79-3.89.79h-2-2c-1.39 0-2.72-.28-3.92-.8-3.57-1.53-6.08-5.07-6.08-9.2v-3-5c0-1.1.45-2.1 1.17-2.83.73-.72 1.73-1.17 2.83-1.17l.04-.16c.28-1.13.93-2.09 1.8-2.77.86-.67 1.96-1.07 3.12-1.07.69 0 1.37.14 2 .41l11.22 4.81c1.1.47 1.82 1.56 1.82 2.76v.02z" fill="#f0d0b4"/></g><g><path d="m19.869 34.803v3h-2c-1.1 0-2.1-.45-2.83-1.17-.72-.73-1.17-1.73-1.17-2.83 0-.92.31-1.77.84-2.45.73-.94 1.87-1.55 3.16-1.55h2z" fill="#f0d0b4"/></g><g><path d="m39.869 33.803v4h-2.35c-.12.28-.12.3-.24.58l1.66 1.66-2.83 2.83-1.66-1.66c-.28.12-.3.12-.58.24v2.35h-4v-2.35c-.28-.12-.3-.13-.58-.24l-1.66 1.66-2.83-2.83 1.66-1.66c-.11-.28-.12-.3-.24-.58h-2.35v-4h2.35c.12-.28.12-.3.24-.58l-1.66-1.66 2.83-2.83 1.66 1.66c.28-.12.3-.12.58-.24v-2.35h4v2.35c.28.12.3.12.58.24l1.66-1.66 2.83 2.83-1.66 1.66c.12.28.12.3.24.58zm-6 2c0-1.1-.9-2-2-2s-2 .9-2 2 .9 2 2 2 2-.9 2-2z" fill="#fcd770"/></g></g><g><path d="m31.869 32.803c-1.654 0-3 1.346-3 3s1.346 3 3 3 3-1.346 3-3-1.346-3-3-3zm0 4c-.551 0-1-.449-1-1s.449-1 1-1 1 .449 1 1-.449 1-1 1z"/><path d="m40.354 31.56-4.243-4.243-1.243 1.243v-1.757h-6v1.757l-1.243-1.243-4.242 4.243 1.242 1.243h-1.757v6h1.758l-1.243 1.243 4.242 4.242 1.243-1.242v1.757h6v-1.757l1.243 1.242 4.243-4.242-1.243-1.243h1.757v-6h-1.757zm-1.485 5.243h-2.018l-.752 1.815 1.427 1.427-1.415 1.414-1.427-1.427-1.815.752v2.018h-2v-2.019l-1.815-.751-1.427 1.427-1.414-1.414 1.428-1.428-.753-1.815h-2.018v-2h2.018l.752-1.815-1.427-1.427 1.414-1.415 1.427 1.427 1.815-.752v-2.018h2v2.018l1.815.752 1.427-1.427 1.415 1.415-1.427 1.427.752 1.815h2.018z"/><path d="m31.869 10.803c1.654 0 3-1.346 3-3s-1.346-3-3-3-3 1.346-3 3 1.345 3 3 3zm0-4c.551 0 1 .449 1 1s-.449 1-1 1-1-.449-1-1 .448-1 1-1z"/><path d="m39.869 10.803c1.654 0 3-1.346 3-3s-1.346-3-3-3-3 1.346-3 3 1.345 3 3 3zm0-4c.551 0 1 .449 1 1s-.449 1-1 1-1-.449-1-1 .448-1 1-1z"/><path d="m23.869 10.803c1.654 0 3-1.346 3-3s-1.346-3-3-3-3 1.346-3 3 1.345 3 3 3zm0-4c.551 0 1 .449 1 1s-.449 1-1 1-1-.449-1-1 .448-1 1-1z"/><path d="m4.869 38.803h2v4h-2z"/><path d="m53.869 0-9.802 14.703c-2.039-1.199-4.405-1.9-6.937-1.9h-10.789c-2.931 0-5.585 1.52-7.067 4.006-1.714.071-3.259.795-4.405 1.923v-3.929h4.869l-9.869-14.803-9.869 14.803h4.869v22h2v-24h-3.132l6.131-9.197 6.132 9.197h-3.131v10.685c0 .247.014.493.041.738l.764 6.875c-.504.781-.805 1.705-.805 2.701 0 2.757 2.243 5 5 5h1.051c.315 3.472 2.25 6.478 5.042 8.264-4.353 2.715-7.092 7.542-7.092 12.736v1h-2.001v-20h-2v20h-6v-16h-2v18h54v-18h-2v16h-6v-20h-2v20h-1.999v-1c0-5.195-2.74-10.022-7.093-12.737 2.791-1.786 4.726-4.791 5.041-8.263h1.051c2.757 0 5-2.243 5-5 0-.906-.261-1.746-.685-2.48l.417-2.087c.177-.886.267-1.792.267-2.694v-13.738h-3.131l6.131-9.197 6.132 9.197h-3.131v24h2v-22h4.869zm-39 33.803c0-1.654 1.346-3 3-3h1v2.132l-1.445-.964-1.109 1.664 2.555 1.703v1.465h-1c-1.656 0-3.001-1.346-3.001-3zm16.744 19h.512l2.4 8h-5.312zm.72-2h-.93l-.449-.673.913-.913.913.913zm1.93-2.02c.652-.023 1.291-.095 1.909-.227l-.641 1.495zm-6.057 1.268-.641-1.495c.618.132 1.258.204 1.909.227zm-9.336 9.752c0-4.646 2.526-8.959 6.512-11.264l2.149 5.015 1.982-1.982.262.394-2.651 8.837h-2.256v-6h-2v6h-3.998zm26 0v1h-4.001v-6h-2v6h-2.256l-2.651-8.837.262-.394 1.982 1.982 2.15-5.016c3.987 2.305 6.514 6.618 6.514 11.265zm-2.001-22c0 4.962-4.038 9-9 9h-4c-4.962 0-9-4.038-9-9v-8c0-1.654 1.346-3 3-3h.782l.228-.917c.454-1.815 2.078-3.083 3.949-3.083.555 0 1.094.111 1.604.329l11.225 4.811c.737.316 1.212 1.037 1.212 1.838zm3-1h-1v-1.465l2.555-1.703-1.109-1.664-1.445.964v-2.132h1c1.654 0 3 1.346 3 3s-1.347 3-3.001 3zm2.772-7.96-.145.724c-.766-.477-1.661-.765-2.627-.765h-1.13c-.3-1.191-1.13-2.2-2.294-2.698l-11.225-4.811c-.76-.326-1.564-.491-2.392-.491-2.601 0-4.882 1.643-5.728 4.059-2.064.32-3.708 1.91-4.123 3.941h-1.108c-.862 0-1.661.239-2.369.624l-.602-5.421c-.019-.172-.029-.345-.029-.519 0-2.583 2.102-4.685 4.685-4.685h.933l.276-.553c1.063-2.126 3.2-3.447 5.578-3.447h10.789c6.473 0 11.739 5.266 11.739 11.739 0 .772-.077 1.546-.228 2.303zm.228-14.04v4.637c-1.151-1.895-2.742-3.487-4.637-4.637z"/><path d="m56.869 38.803h2v4h-2z"/></g></g></svg>