<svg xmlns="http://www.w3.org/2000/svg" xmlns:xlink="http://www.w3.org/1999/xlink" viewBox="0 0 2064.47 715"><defs><style>.cls-1,.cls-5,.cls-7,.cls-8{fill:none;}.cls-2{fill:#7bbb54;}.cls-3{fill:#48c4da;}.cls-4{clip-path:url(#clip-path);}.cls-5,.cls-7,.cls-8{stroke:#fff;}.cls-5{stroke-miterlimit:10;}.cls-5,.cls-8{stroke-width:3px;}.cls-6{fill:#fff;}.cls-7,.cls-8{stroke-linejoin:round;}.cls-7{stroke-width:20px;}.cls-8{stroke-linecap:round;}</style><clipPath id="clip-path" transform="translate(36.7)"><rect class="cls-1" width="1920" height="642"/></clipPath></defs><g id="Capa_2" data-name="Capa 2"><g id="propuesta_página_nueva" data-name="propuesta página nueva"><g id="portada"><rect class="cls-2" x="36.7" width="1920" height="642"/><circle class="cls-3" cx="1847.18" cy="682.73" r="32.27"/><g class="cls-4"><rect class="cls-5" x="1848.05" y="173.5" width="214.92" height="417" rx="107.46"/><circle class="cls-6" cx="1847.18" cy="520.33" r="32.27"/><circle class="cls-6" cx="1847.18" cy="601.53" r="32.27"/><path class="cls-5" d="M332.5,617.17a74.67,74.67,0,0,1-74.67-74.67H332.5Z" transform="translate(36.7)"/><path class="cls-7" d="M66.53,300.67A64.53,64.53,0,0,1,91.27,427.33" transform="translate(36.7)"/><path class="cls-7" d="M1602.58,222.93a57,57,0,0,1-83.25-77.76" transform="translate(36.7)"/><circle class="cls-8" cx="156.2" cy="155.5" r="14"/><circle class="cls-6" cx="347.2" cy="541.5" r="14"/><circle class="cls-8" cx="347.2" cy="500.5" r="14"/><circle class="cls-8" cx="347.2" cy="459.5" r="14"/><path class="cls-8" d="M83.9,378.87a119.1,119.1,0,1,1,0-238.2v24.69a94.41,94.41,0,1,0,94.4,94.41H203A119.1,119.1,0,0,1,83.9,378.87Z" transform="translate(36.7)"/><polygon class="cls-8" points="1684.63 185.5 1640.68 129.12 1596.73 185.5 1684.63 185.5"/></g></g></g></g></svg>