<svg xmlns="http://www.w3.org/2000/svg" xmlns:xlink="http://www.w3.org/1999/xlink" viewBox="0 0 362.02 292.54"><defs><style>.cls-1{fill:none;}.cls-2{fill:#fff;}.cls-3{fill:#48c4da;}.cls-4{clip-path:url(#clip-path);}.cls-5{fill:#423f3f;}.cls-6{fill:#35658c;}.cls-7{fill:#fbb087;}.cls-8{fill:#ad523f;}.cls-9{fill:#f48040;}.cls-10{fill:#db662c;}.cls-11{fill:#ea9c75;}.cls-12{fill:#823e22;}.cls-13{clip-path:url(#clip-path-2);}.cls-14{fill:#738435;}.cls-15{clip-path:url(#clip-path-3);}.cls-16{fill:#6faa48;}.cls-17{fill:#dc927b;}.cls-18{fill:#b4426f;}.cls-19{fill:#9b315c;}.cls-20{fill:#bddcf2;}.cls-21{fill:#94bdd6;}.cls-22{fill:#bc715c;}.cls-23{fill:#ce715b;}.cls-24{clip-path:url(#clip-path-4);}.cls-25{clip-path:url(#clip-path-5);}.cls-26{fill:#05162e;}.cls-27{clip-path:url(#clip-path-6);}.cls-28{fill:#f2f2f2;}.cls-29{fill:#7bbb54;}</style><clipPath id="clip-path"><polyline id="SVGID" class="cls-1" points="3.47 9.97 3.47 273.54 83.52 273.54 102.67 273.54 224.95 273.54 353.64 273.54 365.48 273.54 365.48 9.27"/></clipPath><clipPath id="clip-path-2"><path class="cls-2" d="M215.93,59.33s2.45-7.51,12.15-1.33C228.08,58,223.54,65.68,215.93,59.33Z"/></clipPath><clipPath id="clip-path-3"><path class="cls-2" d="M208.37,58.8s-2.52-7.75-8.35-2.87C200,55.93,201.71,63.5,208.37,58.8Z"/></clipPath><clipPath id="clip-path-4"><path class="cls-2" d="M117.78,108.07s-1.41-3.42-4.72-3.53a6.69,6.69,0,0,0-5.25,2.55s.88,2.91,4.9,3S117.78,108.07,117.78,108.07Z"/></clipPath><clipPath id="clip-path-5"><path class="cls-2" d="M126.52,107.94s1.23-3.45,4.35-3.66a6.25,6.25,0,0,1,5,2.4,4.72,4.72,0,0,1-4.54,3.18C127.58,110.11,126.52,107.94,126.52,107.94Z"/></clipPath><clipPath id="clip-path-6"><path class="cls-2" d="M116.92,191.77l6.26,17.08a1.18,1.18,0,0,0,1.55.68l7.17-2.92a1.19,1.19,0,0,0,.66-1.52L126.27,188a1.19,1.19,0,0,0-1.57-.67l-7.13,3A1.17,1.17,0,0,0,116.92,191.77Z"/></clipPath></defs><g id="Capa_2" data-name="Capa 2"><g id="propuesta_página_nueva" data-name="propuesta página nueva"><g id="propósitos"><path class="cls-3" d="M221,0h0A140.79,140.79,0,0,0,106.51,58.75,110.74,110.74,0,0,0,0,169.41V273.54H362V141A141,141,0,0,0,221,0Z"/><g class="cls-4"><path d="M256.38,283.87c-1.44-29.1,2-47.87-2.88-76.88-2.21-13.13-4.67-23.66-6.31-30.2l-26.58-3-30.65,3s-6.76-.16-7.91,30.79c-.15,4.09-.44,9.21-.51,14a80.12,80.12,0,0,0,.7,11.69c.8,6,1.92,13.94,3.37,23.27,2.41,15.54,3.38,19.54,4.31,28l30.81.39-3.88-61.26,8,61.69Z"/><path class="cls-5" d="M216.85,223.85h0l-14.94-3.13a.14.14,0,0,1-.1-.15.13.13,0,0,1,.15-.1l14.95,3.13a.13.13,0,0,1,.09.15A.13.13,0,0,1,216.85,223.85Z"/><path class="cls-6" d="M224.84,101.48s-11.48,9-23.79,11.93S164.29,127.73,147,126.83l8.85-24,41.13-15.13Z"/><polygon class="cls-7" points="161.94 68.44 159.84 85.86 146.38 85.04 150.33 65.92 161.94 68.44"/><path class="cls-7" d="M156.31,70.56a5.2,5.2,0,0,0,5.9-1.89l6.52-9.49a4.44,4.44,0,0,0-.58-5.46l-.91-.93,5.16-16.34a2.13,2.13,0,0,0-1.17-2.66h0a2.11,2.11,0,0,0-2.8,1.22L162.94,50l.45-14.31a2,2,0,0,0-2.1-2.1h0a2,2,0,0,0-2,1.84L158,48.65l-7.74,1.53a2.11,2.11,0,0,0-1.66,1.71c-.39,2.35-.74,7.46,1.61,14.61a5.11,5.11,0,0,0,3.44,3.32Z"/><path class="cls-7" d="M158,48.59s-3.48-2.1-5.14.78L154,55.75a2.41,2.41,0,0,0,2.85,2h0a2.41,2.41,0,0,0,1.93-2.63Z"/><path class="cls-7" d="M152.87,49.37s-2.54-1.43-4.31.32a1.87,1.87,0,0,0-.47,1.75l1.11,4.66a2.46,2.46,0,0,0,3,1.82h0A2.47,2.47,0,0,0,154,55Z"/><path class="cls-8" d="M150.05,57.65A2.62,2.62,0,0,1,148.94,56l-.36-2a.12.12,0,0,1,.1-.15.12.12,0,0,1,.15.1l.36,2a2.37,2.37,0,0,0,4.22,1,2.35,2.35,0,0,0,.45-1.81l-1.12-5.72a.12.12,0,0,1,.1-.14.12.12,0,0,1,.15.1l1.12,5.71a2.62,2.62,0,0,1-4.06,2.59Z"/><path class="cls-8" d="M155,57.08a2.47,2.47,0,0,1-1-1.53l-.1-.44a.13.13,0,1,1,.25,0l.1.43a2.27,2.27,0,0,0,4.47-.79l-.79-6.09a.12.12,0,0,1,.11-.14.12.12,0,0,1,.14.11l.79,6.09a2.54,2.54,0,0,1-2,2.8A2.46,2.46,0,0,1,155,57.08Z"/><path class="cls-7" d="M166.19,53.93l-5.61,2.37a2.46,2.46,0,0,0-.78,3.7h0a2.47,2.47,0,0,0,2.71.81l5.58-.7s3.18-2.91,1.24-5.49A2.49,2.49,0,0,0,166.19,53.93Z"/><path class="cls-8" d="M160.8,60.54a2.87,2.87,0,0,1,.6-5.06l5.94-2.25a.12.12,0,0,1,.16.07.13.13,0,0,1-.07.17l-5.94,2.25a2.62,2.62,0,0,0,1.31,5l4.7-.69a.12.12,0,0,1,.14.1.13.13,0,0,1-.1.15l-4.7.69A2.87,2.87,0,0,1,160.8,60.54Z"/><path class="cls-6" d="M162.39,116.05l3.17-42.17A2.71,2.71,0,0,0,163,71l-16.57-1.11a2.42,2.42,0,0,0-2.56,2l-6.81,41.4c-.46,7.73,3.73,13.45,10.78,13.78h0C154.2,127.39,163.88,123.82,162.39,116.05Z"/><path class="cls-6" d="M242.28,90.72l-16.93-5.1-14.68.17s-18.19-.53-22.34,8.06a17.78,17.78,0,0,0-1.47,4.82c-2.71,15-3.31,22.6-3.4,23-1.18,18.93-1.84,31.89-1.4,46.5.27,9.18.35,22,1.75,25.88,1,.87,3.8,1.31,7.69,1.74s8.58,2.95,15.73,1.05c0,0,4.49.21,24.82,2.45s18.73-4.22,18.73-4.22L248.52,165l-1.85-26.77c-.32-14.9,7.12-36.48-.36-45A8.66,8.66,0,0,0,242.28,90.72Z"/><path class="cls-2" d="M229.37,86s5,5.55-2.17,9.74c-4.51,2.63-22.95.75-17.6-8.69a5.21,5.21,0,0,1,1-1l14.58-1.79Z"/><path class="cls-6" d="M239.68,93.6a2.85,2.85,0,0,1,4.12-2.08,31.39,31.39,0,0,1,13.4,13.24c6,11.43,24.05,38.55,27.46,55.9l-25.13-2.93-24.36-35.55Z"/><path d="M246.31,138.57a.12.12,0,0,1-.1,0l-4.63-6.78a.13.13,0,0,1,0-.18.13.13,0,0,1,.17,0l4.63,6.78a.13.13,0,0,1,0,.18A.08.08,0,0,1,246.31,138.57Z"/><polygon class="cls-9" points="185.56 146.55 226.43 130.14 230.55 139.93 190.64 155.51 185.56 146.55"/><polygon class="cls-2" points="227.51 136.76 225.39 132.11 187.07 147.85 189.37 152.51 227.51 136.76"/><polygon class="cls-9" points="189.14 149.63 212.67 205.98 252.98 188.99 230.26 132.77 189.14 149.63"/><polygon class="cls-10" points="189.14 149.63 185.56 146.55 208.86 202.77 212.67 205.98 189.14 149.63"/><polygon class="cls-7" points="246.81 165.45 218.34 180.84 221.51 191.9 251.43 181.58 246.81 165.45"/><path class="cls-7" d="M218.34,180.84s-20.19-3.66-19.43,3.6,4.38,24.4,22.6,7.46Z"/><path class="cls-7" d="M219,181.67l-2.73-2.93a11.49,11.49,0,0,0-5.87-3.38l-4.17-1a2.21,2.21,0,0,0-2.48,1.18h0a2.22,2.22,0,0,0,.76,2.84l6,4Z"/><path class="cls-6" d="M265,149.83l-43.23,23a2.63,2.63,0,0,0-1.19,3.34l6.82,16.4a2.82,2.82,0,0,0,3.69,1.52l45-18.93c7.35-2.88,10.84-9.21,8.14-15.87h0C281.78,153.36,271.53,145.13,265,149.83Z"/><line class="cls-6" x1="257.06" y1="154.06" x2="264.99" y2="149.83"/><path class="cls-11" d="M202.84,64.82a14,14,0,0,0-1.16-5.11c-1-2.24-2.61-4.43-5.28-3.36-4.55,1.83-.62,9.3,3.88,10.16,1.32.25,2.6-.6,2.56-1.69Z"/><path class="cls-12" d="M196.78,49.1c.29,24.74,10.45,30.38,24.35,31.25s24.65-9.91,26.24-23.73c1.93-16.69-9.25-25.18-23.08-26.79C205.26,27.63,196.61,33.91,196.78,49.1Z"/><path class="cls-7" d="M228.52,77.79,229.4,87a6.54,6.54,0,0,1-6.83,7.15,6.73,6.73,0,0,1-.77-.09l-6.45-1a6,6,0,0,1-2.22-.79,5.26,5.26,0,0,1-2.33-5.88l1.79-8.53Z"/><polygon class="cls-11" points="210.62 87.38 226.34 76.86 214.62 69.34 210.62 87.38"/><path class="cls-7" d="M229.19,35.54a35.4,35.4,0,0,0-14.09-1.65c-6.34.61-14.55,3.34-15.93,13.14-2.32,16.35-.48,29.84,8.86,34.36,7.17,3.47,12.51,2.81,21.05-.68,3.18-1.3,6.41-7.67,7.38-10.76l3.93-8.51S250.91,42.52,229.19,35.54Z"/><path class="cls-8" d="M209.75,68.61a.16.16,0,0,1-.09,0l-2.19-2a.13.13,0,0,1,0-.16L211,59.89a.13.13,0,0,1,.17,0,.12.12,0,0,1,.06.17l-3.47,6.49,2.11,1.89a.13.13,0,0,1,0,.18A.15.15,0,0,1,209.75,68.61Z"/><path class="cls-12" d="M208.54,47.9s.68,2-2.31,2.25a25.53,25.53,0,0,0-5,.6,1.8,1.8,0,0,1-1.95-.62h0a1.15,1.15,0,0,1,.07-1.45,7.43,7.43,0,0,1,5.08-2.35C208,46,208.54,47.9,208.54,47.9Z"/><path class="cls-12" d="M217.48,48.3s-1.1,1.94,3.05,2.58a63.78,63.78,0,0,1,8.63,2.21,3.06,3.06,0,0,0,2.76-.35h0a.91.91,0,0,0,0-1.45,19.85,19.85,0,0,0-8.62-4C218.41,46.53,217.48,48.3,217.48,48.3Z"/><path class="cls-2" d="M215.93,59.33s2.45-7.51,12.15-1.33C228.08,58,223.54,65.68,215.93,59.33Z"/><g class="cls-13"><path class="cls-14" d="M218.35,58.45a3.49,3.49,0,1,0,4.08-2.91A3.54,3.54,0,0,0,218.35,58.45Z"/></g><path class="cls-2" d="M208.37,58.8s-2.52-7.75-8.35-2.87C200,55.93,201.71,63.5,208.37,58.8Z"/><g class="cls-15"><path class="cls-14" d="M207.29,57.24c.18,1.82-.84,3.42-2.28,3.57s-2.77-1.21-3-3,.83-3.43,2.28-3.58S207.1,55.41,207.29,57.24Z"/></g><path d="M200,55.9a4.44,4.44,0,0,1,.79-.83,3.55,3.55,0,0,1,1-.57,3.36,3.36,0,0,1,1.13-.24,3.21,3.21,0,0,1,1.15.13h0a5.32,5.32,0,0,1,2.67,1.45,6.93,6.93,0,0,1,1,1.2,6.86,6.86,0,0,1,.67,1.39.13.13,0,0,1-.08.16.12.12,0,0,1-.16-.08h0a7.35,7.35,0,0,0-.63-1.33,6.51,6.51,0,0,0-.91-1.18,5.37,5.37,0,0,0-1.17-.9,5.17,5.17,0,0,0-1.39-.52h0a3.27,3.27,0,0,0-1.08-.14,3.71,3.71,0,0,0-1.09.22,3.64,3.64,0,0,0-1,.54,4.86,4.86,0,0,0-.78.79.06.06,0,0,1-.09,0A.05.05,0,0,1,200,55.9Z"/><path class="cls-8" d="M212.23,74.37a8.84,8.84,0,0,1-6.51-2.56.13.13,0,0,1,.18-.18c4.51,4.57,11.54,1.45,11.61,1.42a.13.13,0,0,1,.17.06.13.13,0,0,1-.06.17A14.63,14.63,0,0,1,212.23,74.37Z"/><path d="M228,58.05a10,10,0,0,0-3-1.69,12.6,12.6,0,0,0-1.67-.47,8.35,8.35,0,0,0-1.71-.22,6.63,6.63,0,0,0-3.31.78,4.51,4.51,0,0,0-1.28,1.1A4,4,0,0,0,216.3,59h0a.11.11,0,0,1-.15.09.12.12,0,0,1-.09-.15h0a4.61,4.61,0,0,1,2.19-2.72,6.71,6.71,0,0,1,3.42-.77,9.11,9.11,0,0,1,1.74.23,12.16,12.16,0,0,1,1.69.5,10.14,10.14,0,0,1,3,1.73.06.06,0,0,1,0,.09A.06.06,0,0,1,228,58.05Z"/><path class="cls-12" d="M236.68,68.46s-9.9-39.15,6.25-29.81l3.56,15.78-1.71,11.25Z"/><path class="cls-7" d="M233.9,67a14.66,14.66,0,0,1,1.85-5.25c1.33-2.25,3.3-4.36,6-2.9,4.58,2.48-.48,9.89-5.34,10.25-1.43.1-2.68-1-2.5-2.1Z"/><path class="cls-8" d="M235.6,65.55h0a.12.12,0,0,1-.07-.17s1.7-4.06,5.29-3.06a.12.12,0,0,1,.09.15.13.13,0,0,1-.16.09c-3.37-.94-4.92,2.76-5,2.92A.12.12,0,0,1,235.6,65.55Z"/><path class="cls-12" d="M237.5,43.52s-32.84,4-42.66-13.44c0,0,22.89-9.49,40,2.52Z"/><path class="cls-12" d="M240.24,36.23S233.53,24.08,220,23.11c0,0,3.15,9.59,11.05,12.65S240.24,36.23,240.24,36.23Z"/><path class="cls-12" d="M244.28,40.9s.07-7.7-6.22-11.87c0,0-1.09,5.49,1.89,9.13S244.28,40.9,244.28,40.9Z"/><path d="M121.93,79.26a13.72,13.72,0,0,1,14.38,2.54C143,87.87,138.39,92,144.21,95s1.73,11.47,8.53,15.21,2.48,13.28-4.43,14.73c0,0-3.2,8.83-10.52,8.09,0,0-6.65,7.62-19.89,3L113,134.16Z"/><path class="cls-16" d="M126.43,207.49c1.87-.14,11.37-1.09,18.7-6a3.07,3.07,0,0,0,1.35-2.42c.3-8.08,1.24-46.75-7.46-64.14a3,3,0,0,0-1.81-1.56,196.62,196.62,0,0,0-19.16-4.89,3.9,3.9,0,0,0-4.64,4.23l7.85,73.53h0s3,1,4.38,1.25Z"/><path class="cls-17" d="M162.79,176.62l-14.51-34.44-13,7.13,16.2,32.52a6.24,6.24,0,0,0,8.31,2.83h0A6.24,6.24,0,0,0,162.79,176.62Z"/><path d="M99.58,81.53s-8.74,1.26-10.33,9.06-1,6-5.74,10S84.91,109,81.15,113c-1.93,2.06-2.82,3.72-3,5.63a7,7,0,0,0,5.35,7.2c2.22.6,4.06,2.67,5.42,5.5,2.7,5.62,12,3,12,3s8.91,5,14.27,1.11-3.58-56.41-3.58-56.41Z"/><path class="cls-16" d="M104.18,209c-1.88-.17-11.36-1.24-18.63-6.28a3.07,3.07,0,0,1-1.31-2.45c-.2-8.07-.63-46.75,8.29-64a3.12,3.12,0,0,1,1.84-1.54,196.32,196.32,0,0,1,19.22-4.63,3.89,3.89,0,0,1,4.58,4.29l-8.81,73.42h0s-3,.94-4.39,1.19Z"/><path class="cls-17" d="M87.54,177.7,98.2,204.63l-5.09,2.08s-10.51-7.45-17.17-25.47c-1-2.86,1.31-6.74,4.29-7.47h0C83,173.08,86.77,175,87.54,177.7Z"/><path class="cls-17" d="M95.22,201.72a10.21,10.21,0,0,1,4.38,6.59l2.89,3.37a1.39,1.39,0,0,1,.07,1.78h0a1.25,1.25,0,0,1-1.8.11l-2-1.72.33.87a7.11,7.11,0,0,0,2.7,3.37l3.47,2.28a1.39,1.39,0,0,1,.63,1.18h0a1.15,1.15,0,0,1-1.7,1l-4.87-2.42a8,8,0,0,1-4-4.7l-3.59-11Z"/><path class="cls-17" d="M75.88,176.49l14-32.37,13,7.08L87.2,181.71A6.17,6.17,0,0,1,79,184.2h0A6,6,0,0,1,75.88,176.49Z"/><path class="cls-18" d="M109.84,211.61c-7.94-.8-14.52,2.76-16.37,8.14a70.88,70.88,0,0,0-3.67,19.91c-.91,19.51.35,36.39,1.68,45.14.67,4.44,6.12,7.77,12.64,7.74h0c6.63,0,12.18-3.54,12.78-8.08L123,222.85c.72-5.52-4.92-10.42-12.9-11.22Z"/><path class="cls-18" d="M133.46,211.72c8.08-.53,12.88,3.17,14.6,8.58a69.37,69.37,0,0,1,3.11,19.95c.34,19.46-1.46,36.21-3.07,44.88-.81,4.4-6.45,7.54-13.06,7.29h0c-6.74-.26-12.27-3.94-12.74-8.47l-2.56-61.47c-.57-5.53,5.31-10.22,13.44-10.74Z"/><path class="cls-18" d="M143.26,205.48H99.72s-6.07,10.59-8.21,22.16l23.92,11a15.79,15.79,0,0,0,11.48,0l23-10.32A79,79,0,0,0,143.26,205.48Z"/><path class="cls-19" d="M124.65,245.33h-5.71a.12.12,0,0,1-.12-.13.12.12,0,0,1,.12-.12h5.71a.12.12,0,0,1,.13.12A.13.13,0,0,1,124.65,245.33Z"/><path class="cls-19" d="M97.39,224.17a.12.12,0,0,1-.12-.09.12.12,0,0,1,.08-.16c8.75-2.75,9.45-13.76,9.45-13.87a.13.13,0,0,1,.26,0c0,.11-.72,11.29-9.63,14.09Z"/><path class="cls-19" d="M146.25,224.4l-.08,0c-7.09-4.93-8.4-14-8.41-14.07a.12.12,0,0,1,.1-.14.13.13,0,0,1,.15.11c0,.09,1.31,9,8.31,13.89a.13.13,0,0,1,0,.18A.12.12,0,0,1,146.25,224.4Z"/><path class="cls-20" d="M143.52,168.49l12.56-6.23a1.88,1.88,0,0,0,.87-2.5l-8.76-18.19c-2.18-4.39-6.76-4.12-11.15-1.94h0a8.89,8.89,0,0,0-4,11.91l8,16.1A1.89,1.89,0,0,0,143.52,168.49Z"/><path class="cls-20" d="M120.05,129l-24.41,8.61a4.13,4.13,0,0,0-2.85,5.15l6.77,63.08a31.82,31.82,0,0,0,7.65,2.49c8.1,1.53,10.58-1.38,21.77-1.07a49.61,49.61,0,0,0,8.93-.35,48.4,48.4,0,0,0,5.43-1.07c-.36-11.25.52-20.35.8-26.79.64-14.25,1-29.19,2.84-36a4.25,4.25,0,0,0-3.07-5.16Z"/><path class="cls-17" d="M109.85,132.64l9.8-3.85,9.42,3.57s-.35,4.29-8.29,4.6C111.5,137.31,109.85,132.64,109.85,132.64Z"/><path class="cls-21" d="M144.11,161.71a.13.13,0,0,1,.26,0l.44,5.92a.12.12,0,0,1-.12.13.08.08,0,0,1-.07,0,.13.13,0,0,1-.07-.1"/><path class="cls-20" d="M92.6,167.52l-11-7.67a2.16,2.16,0,0,1-.54-3l11.57-16.67c2.8-4,6.86-2.89,10.89-.09h0a7.11,7.11,0,0,1,3.16,11L95.61,167A2.16,2.16,0,0,1,92.6,167.52Z"/><path class="cls-21" d="M94,168.13a1.81,1.81,0,0,1-1-.32L91.79,167a.14.14,0,0,1,0-.18.13.13,0,0,1,.18,0l1.18.81a1.5,1.5,0,0,0,1.18.24,1.54,1.54,0,0,0,1-.68l2.35-3.68a.13.13,0,0,1,.18,0,.13.13,0,0,1,0,.17l-2.35,3.68a1.75,1.75,0,0,1-1.16.8A1.47,1.47,0,0,1,94,168.13Z"/><path d="M131,79.93s-3.67-8.11-16.44-7.92S98,84.78,98,84.78l18.73,9.85Z"/><path class="cls-22" d="M132.19,108.91c-1.15,2.69-1,7,1.56,7.91s5.52-2.57,6.67-5.25.39-5-2.15-5.91S133.35,106.23,132.19,108.91Z"/><path class="cls-17" d="M105.21,109.35c1.23,2.65,2.31,6.59-1.33,8-2.53.94-5.59-2.41-6.82-5.06s-.54-5,2-6S104,106.7,105.21,109.35Z"/><path class="cls-8" d="M103.32,112.93a.14.14,0,0,1-.13-.09c-1.17-4-4.12-3.25-4.15-3.24a.12.12,0,0,1-.15-.09.12.12,0,0,1,.08-.15s3.22-.86,4.47,3.4a.13.13,0,0,1-.09.16Z"/><path d="M140.27,97.53c.16,10.77-8.7,19.63-19.8,19.8S99.08,108.47,98.92,97.7s9.89-19.21,21-19.37S140.11,86.76,140.27,97.53Z"/><polygon class="cls-17" points="114.76 117.14 112.26 133.75 127.03 133.75 124.48 116.97 114.76 117.14"/><polygon class="cls-22" points="117.33 123.49 126.46 131.06 125.19 121.85 117.33 123.49"/><path class="cls-17" d="M120.23,80.72h0c-9.87.14-18.48,7.6-18.34,16.65l.73,10.85s.43,15.38,15.7,19.84a8.9,8.9,0,0,0,5.21-.08c15.13-4.9,15.11-20.3,15.11-20.3l.41-10.86C138.92,87.78,130.09,80.57,120.23,80.72Z"/><path class="cls-23" d="M118.54,119s.22,2.49,3.62,2.44,3.55-2.55,3.55-2.55Z"/><path class="cls-8" d="M122.39,115a.13.13,0,0,1,0-.25l1.89,0-.47-2.62a.13.13,0,1,1,.25,0l.5,2.77a.1.1,0,0,1,0,.1.12.12,0,0,1-.09,0l-2,0Z"/><path class="cls-2" d="M117.78,108.07s-1.41-3.42-4.72-3.53a6.69,6.69,0,0,0-5.25,2.55s.88,2.91,4.9,3S117.78,108.07,117.78,108.07Z"/><g class="cls-24"><path d="M109.47,107.26a3.3,3.3,0,1,0,3.41-3.19A3.31,3.31,0,0,0,109.47,107.26Z"/></g><path d="M117.78,108.2a.12.12,0,0,1-.12-.08s-1.3-3.45-4.58-3.45h0a6.83,6.83,0,0,0-5.15,2.49.13.13,0,0,1-.18,0,.13.13,0,0,1,0-.18,7,7,0,0,1,5.35-2.59h0c3.46,0,4.8,3.57,4.82,3.61a.13.13,0,0,1-.08.16Z"/><path class="cls-2" d="M126.52,107.94s1.23-3.45,4.35-3.66a6.25,6.25,0,0,1,5,2.4,4.72,4.72,0,0,1-4.54,3.18C127.58,110.11,126.52,107.94,126.52,107.94Z"/><g class="cls-25"><path d="M134.34,106.89a3.24,3.24,0,0,1-2.91,3.5,3.19,3.19,0,0,1-3.31-3.09,3.23,3.23,0,0,1,2.91-3.5A3.19,3.19,0,0,1,134.34,106.89Z"/></g><path d="M126.52,108.07h0a.14.14,0,0,1-.09-.16s1.19-3.67,4.47-3.76A6.54,6.54,0,0,1,136,106.6a.13.13,0,0,1,0,.18.12.12,0,0,1-.17,0,6.31,6.31,0,0,0-4.92-2.34c-3.1.08-4.22,3.54-4.24,3.57A.11.11,0,0,1,126.52,108.07Z"/><path d="M110.91,98.72a18.44,18.44,0,0,0-4.62,1.34c-.89.51-.73,1.34.48,1.56a19.52,19.52,0,0,0,4.72-.32c3.29-.5,5.36-1.57,5-2.33C116.07,98,112.63,98.37,110.91,98.72Z"/><path d="M132.21,98.35a14.08,14.08,0,0,1,4,1.11c.8.46.71,1.3-.31,1.59a14.83,14.83,0,0,1-4.08-.08c-2.86-.32-4.7-1.29-4.46-2.07C127.73,97.89,130.71,98.09,132.21,98.35Z"/><path class="cls-23" d="M125.71,118.93a8.36,8.36,0,0,0-7.17.11S122.49,120.66,125.71,118.93Z"/><path class="cls-8" d="M121.93,119.82a9.55,9.55,0,0,1-4.29-1,.12.12,0,0,1,0-.17.13.13,0,0,1,.17-.05,9.72,9.72,0,0,0,8.59-.13.13.13,0,1,1,.11.23A10,10,0,0,1,121.93,119.82Z"/><path d="M131.43,81.06s-.57,9-10.59,10.7c-10.22,1.78-7.8,7.7-20.31,6.67,0,0-4.71-6.38,1.75-13.33,4.27-4.6,12.79-8.6,19-8.18C123.36,77.06,128.42,80.55,131.43,81.06Z"/><path d="M130.64,81.07s-7,5.74,9.38,19.18a12.27,12.27,0,0,0-.37-7.5C138.14,88.82,130.64,81.07,130.64,81.07Z"/><path class="cls-26" d="M115.23,191l7.44,20.17a1.5,1.5,0,0,0,2,.86l9-3.67a1.49,1.49,0,0,0,.83-1.91L127,186.2a1.49,1.49,0,0,0-2-.84l-9,3.73A1.5,1.5,0,0,0,115.23,191Z"/><path class="cls-2" d="M116.92,191.77l6.26,17.08a1.18,1.18,0,0,0,1.55.68l7.17-2.92a1.19,1.19,0,0,0,.66-1.52L126.27,188a1.19,1.19,0,0,0-1.57-.67l-7.13,3A1.17,1.17,0,0,0,116.92,191.77Z"/><g class="cls-27"><path class="cls-28" d="M126.19,184.78c.17-2.6,1.69.6-5.75,25.53L114,189.7Z"/></g><path class="cls-17" d="M152.58,175.11l-23.48,24,4.37,4.83s13.59-6.18,28-20c2.29-2.19,1.94-7-.43-9.08h0C158.84,172.9,154.56,172.89,152.58,175.11Z"/><path class="cls-17" d="M131.3,197.74s-13.72-.54-12.79,3.37,4.38,13,15.57,2.43Z"/><path class="cls-17" d="M131.79,198.14l-2-1.4a8.3,8.3,0,0,0-4.13-1.42l-2.85-.21a1.6,1.6,0,0,0-1.59.82h0a1.1,1.1,0,0,0,.68,1.49l4.25,1.73Z"/><path class="cls-29" d="M101.41,135.18a1.48,1.48,0,0,0-.38,1.66c.79,2,2.72,8.19,2.59,20.36-.16,14.33-3.33,27.36-5.79,29.14-.17.13-1.22.6-1.36.77-.51.63-.2,1.38,0,3.06.09.68.46,1.42.77,1.53.76.25,5.86-.77,9.17-11a95.55,95.55,0,0,0,3.82-24.85c0-6.83-1.87-16.58-4.48-21.34a1.28,1.28,0,0,0-1.37-.65A6.65,6.65,0,0,0,101.41,135.18Z"/></g></g></g></g></svg>