<svg xmlns="http://www.w3.org/2000/svg" xmlns:xlink="http://www.w3.org/1999/xlink" viewBox="0 0 380.37 286.38"><defs><style>.cls-1{fill:none;}.cls-18,.cls-2{fill:#fff;}.cls-3{fill:#7bbb54;}.cls-4{clip-path:url(#clip-path);}.cls-5{fill:#48c4da;}.cls-6{fill:#2d9eaa;}.cls-7{fill:#f48040;}.cls-8{fill:#f7a77f;}.cls-9{fill:#895033;}.cls-10{fill:#db662c;}.cls-11{fill:#43af9a;}.cls-12{fill:#703a28;}.cls-13{fill:#ee896c;}.cls-14{clip-path:url(#clip-path-2);}.cls-15{fill:#738435;}.cls-16{clip-path:url(#clip-path-3);}.cls-17{fill:#d8553d;}.cls-18{opacity:0.22;}.cls-19{fill:#e5a17f;}.cls-20{fill:#f2f2f2;}.cls-21{fill:#333;}.cls-22{fill:#b4426f;}.cls-23{fill:#2776c4;}.cls-24{fill:#e0e0e0;}.cls-25{fill:#132a35;}.cls-26{fill:#42210b;}.cls-27{fill:#d3967a;}.cls-28{fill:#99522e;}.cls-29{clip-path:url(#clip-path-4);}.cls-30{clip-path:url(#clip-path-5);}</style><clipPath id="clip-path"><polyline id="SVGID" class="cls-1" points="0 7.61 0 272.92 166.31 272.92 281.32 272.92 380.37 272.92 380.37 4.39"/></clipPath><clipPath id="clip-path-2"><path class="cls-2" d="M251.21,73.78s2.35-6.19,10.23-.64C261.44,73.14,257.37,78.57,251.21,73.78Z"/></clipPath><clipPath id="clip-path-3"><path class="cls-2" d="M245.29,73.07s-1.8-6.59-6.88-2.73C238.41,70.34,240.44,76.62,245.29,73.07Z"/></clipPath><clipPath id="clip-path-4"><path class="cls-2" d="M134.19,46.51s-1.21-6.36-9.75-2.35C124.44,44.16,127.34,50.88,134.19,46.51Z"/></clipPath><clipPath id="clip-path-5"><path class="cls-2" d="M140.69,47.14s2.86-6,7.09-1.46C147.78,45.68,145.61,51.66,140.69,47.14Z"/></clipPath></defs><g id="Capa_2" data-name="Capa 2"><g id="propuesta_página_nueva" data-name="propuesta página nueva"><g id="propósitos"><path class="cls-3" d="M273.34,65.26h0a107.69,107.69,0,0,0-13.39.83A140.59,140.59,0,0,0,140.66,0h0A140.67,140.67,0,0,0,0,140.66V272.92H380.37V172.28A107,107,0,0,0,273.34,65.26Z"/><g class="cls-4"><path class="cls-5" d="M253.06,285.54c-.66-20-.13-26.86-.31-45-.18-16.84-.94-40.87-3.7-70.42H226.63a378.4,378.4,0,0,0-9.73,87.09c0,6.84,0,17.51.2,29.12Z"/><path class="cls-5" d="M296,282.09c-.35-2.89.17-18.55-3.6-38.68-4-21.14-7.35-32.71-8.18-35.84a212.39,212.39,0,0,0-11.67-32.91l-30.92-2.23-8.19,17.15,25.35,96.8Z"/><path class="cls-6" d="M252.68,261.48a.12.12,0,0,1-.11-.09l-10.75-39.65a.11.11,0,0,1,.22-.06l10.75,39.65a.11.11,0,0,1-.08.14Z"/><path class="cls-7" d="M256.48,106.19s-3.41,24-45.7,66.53a4.07,4.07,0,0,1-5.72.05L192.3,160.36l35-50.27c2.51-2.51,4-4,7.15-4Z"/><path class="cls-8" d="M164.28,127.33l9.32-5,14.2,20c-3.27,2.24-7.58,4.71-10.87,6.94Z"/><path class="cls-8" d="M174.2,120.71l.09-2.26a19.25,19.25,0,0,0-1.73-8.85l-2.21-4.88a2.07,2.07,0,0,0-3-.86h0a2.64,2.64,0,0,0-1.11,2.74l1.2,5.57-11.78-13a1.6,1.6,0,0,0-2.4,0l-.43.47a1.6,1.6,0,0,0-.1,2l8.47,10.14-11.34-10.3a1.6,1.6,0,0,0-2.39.12l-.3.37a1.6,1.6,0,0,0,.1,2.11l9.52,9.66L147.92,108a1.59,1.59,0,0,0-2.38.7l-.08.19a1.61,1.61,0,0,0,.45,1.84l8.75,6.63L149.38,115a1.6,1.6,0,0,0-2.44,1.16h0a1.61,1.61,0,0,0,.61,1.45l20.93,14.81,3.55-5.17A12.47,12.47,0,0,0,174.2,120.71Z"/><path class="cls-9" d="M166.24,121.12a.11.11,0,0,1-.11-.08,10.74,10.74,0,0,1,1.18-8.94.14.14,0,0,1,.17,0,.12.12,0,0,1,0,.17,10.43,10.43,0,0,0-1.15,8.73.11.11,0,0,1-.08.15Z"/><path class="cls-7" d="M212.34,160l-35.6-35.83L166,135.87l25.87,35.43c4.34,5.68,10,8.1,15.51,4.57h0C212.28,172.7,215.47,165,212.34,160Z"/><path class="cls-10" d="M208.36,155.24a.11.11,0,0,1-.08,0l-7.53-6.7a.12.12,0,0,1,.16-.18l7.53,6.71a.14.14,0,0,1,0,.17Z"/><path class="cls-2" d="M234.5,105.26l20.87,14.63L254.08,192l-28.74-4.85S211.73,125.9,234.5,105.26Z"/><polygon class="cls-11" points="225.42 190.4 254.27 192.75 252.83 185.7 224.72 184.06 225.42 190.4"/><path class="cls-8" d="M265.9,118.24s-34.45,11.53-32.79-9.57L249,102.23l11.25.13,5.68,4.74,5.69,9.5Z"/><path class="cls-7" d="M246.54,103.22S234.15,115.64,232,137.76c-1.25,12.89-.26,31.16,2.21,46.22s0,39.94,0,39.94a26.76,26.76,0,0,1-16.35-5,25.51,25.51,0,0,1-6.61-7.23,90.17,90.17,0,0,0,4.84-13.6,86.71,86.71,0,0,0,2.71-32c-1.38-11.91-3-48.16,13.68-61.63a9.3,9.3,0,0,1,5-2A24.17,24.17,0,0,1,245,103Z"/><path class="cls-10" d="M218.61,164.38a.12.12,0,0,1-.11-.09c0-.21-3.46-21.21,2.13-32.47a.13.13,0,0,1,.16-.06.13.13,0,0,1,.05.16c-5.56,11.19-2.15,32.12-2.11,32.33a.12.12,0,0,1-.1.13Z"/><path class="cls-12" d="M280.79,59.74s4.14,8.4,2.43,20.37c-1.75,12.24,9.23,10.39,7.92,22.25,0,0-33.19,13.24-69-8.78,0,0-2.25-8.72,3.74-12.83a28.81,28.81,0,0,0,11.23-15.38Z"/><ellipse class="cls-12" cx="259.85" cy="67.87" rx="21.21" ry="22.84" transform="translate(163.99 318.75) rotate(-83.73)"/><polygon class="cls-8" points="260.98 77.26 262.08 112.04 245.22 110.58 249.01 79.82 260.98 77.26"/><polygon class="cls-13" points="246.08 104.36 258.67 94.11 248.06 88.62 246.08 104.36"/><path class="cls-13" d="M244.32,83.33A17.09,17.09,0,0,0,243.17,77c-1.1-2.83-2.95-5.62-6.32-4.46-5.73,2-1.31,11.45,4.2,12.77,1.63.39,3.25-.58,3.27-1.94Z"/><path class="cls-8" d="M265.22,51.94a25.37,25.37,0,0,0-11.77-1.77C248,50.7,240.9,53.28,239,62.85c-3.18,15.95-2.11,26.45,5,31.68,4.95,3.67,10.38,3.92,17.86.6,2.78-1.24,6.83-6.4,7.88-9.41l3-8.37S283,59,265.22,51.94Z"/><path class="cls-9" d="M246.37,81.23h-.06l-1.84-1.12s-.05,0-.05-.07a.13.13,0,0,1,0-.09l2.3-3.43a.14.14,0,0,1,.17,0,.12.12,0,0,1,0,.16L244.7,80l1.73,1a.12.12,0,0,1,0,.16A.14.14,0,0,1,246.37,81.23Z"/><path class="cls-12" d="M246.05,62.24s.49,1.65-2,1.71a22.07,22.07,0,0,0-4.21.28,1.56,1.56,0,0,1-1.61-.57h0a.88.88,0,0,1,.11-1.15,6.4,6.4,0,0,1,4.35-1.68C245.65,60.74,246.05,62.24,246.05,62.24Z"/><path class="cls-12" d="M253.17,62.51s-1,1.5,2.45,2.16a56.48,56.48,0,0,1,7.15,2.1,2.69,2.69,0,0,0,2.32-.17h0a.7.7,0,0,0,.07-1.15A16.76,16.76,0,0,0,258.09,62C254,61.13,253.17,62.51,253.17,62.51Z"/><path class="cls-2" d="M251.21,73.78s2.35-6.19,10.23-.64C261.44,73.14,257.37,78.57,251.21,73.78Z"/><g class="cls-14"><path class="cls-15" d="M252.6,72.85a2.64,2.64,0,1,0,3.18-2.06A2.68,2.68,0,0,0,252.6,72.85Z"/></g><path d="M261.4,73.18A8.55,8.55,0,0,0,259,71.65a11.16,11.16,0,0,0-1.38-.46,7.54,7.54,0,0,0-1.42-.25,5.56,5.56,0,0,0-2.79.53,3.62,3.62,0,0,0-1.82,2.08h0a.1.1,0,0,1-.14.07.11.11,0,0,1-.08-.14h0a3.88,3.88,0,0,1,1.95-2.2,5.7,5.7,0,0,1,2.9-.51,7.72,7.72,0,0,1,1.45.26,10.85,10.85,0,0,1,1.39.48,8.72,8.72,0,0,1,2.48,1.58.06.06,0,0,1-.08.08Z"/><path class="cls-2" d="M245.29,73.07s-1.8-6.59-6.88-2.73C238.41,70.34,240.44,76.62,245.29,73.07Z"/><g class="cls-16"><path class="cls-15" d="M243.23,71.28a2,2,0,1,1-2.1-2.37A2.27,2.27,0,0,1,243.23,71.28Z"/></g><path d="M238.37,70.3A3.21,3.21,0,0,1,240.88,69a2.85,2.85,0,0,1,1,.16h0a4.17,4.17,0,0,1,1.19.5,4.38,4.38,0,0,1,1,.82,5.57,5.57,0,0,1,.75,1,5.27,5.27,0,0,1,.51,1.19.11.11,0,0,1-.22.06h0a5.41,5.41,0,0,0-.48-1.14,5.1,5.1,0,0,0-.71-1,4.2,4.2,0,0,0-.94-.8,3.71,3.71,0,0,0-1.14-.49h0a2.7,2.7,0,0,0-.9-.15,2.79,2.79,0,0,0-.91.13,3.4,3.4,0,0,0-1.52,1,.06.06,0,1,1-.08-.08Z"/><path class="cls-17" d="M243.36,84.9a3.42,3.42,0,0,0,3.21,2.87,6.66,6.66,0,0,0,5.92-2.57Z"/><path class="cls-17" d="M252.13,85.15s-7.8-2.5-8.62-.32C243.51,84.83,249,86.44,252.13,85.15Z"/><path class="cls-9" d="M248.12,85.93a10.36,10.36,0,0,1-5.22-1.3.14.14,0,0,1,0-.17.12.12,0,0,1,.16,0s4,2.57,9.75.37a.11.11,0,0,1,.15.06.12.12,0,0,1-.07.15A13.17,13.17,0,0,1,248.12,85.93Z"/><path class="cls-18" d="M258.81,67.17l-9.29,9.48s1.72,4.82,5.53,4.85l9.32-9.21S262.89,67.46,258.81,67.17Z"/><path class="cls-18" d="M241.37,64.69l-8.07,9.63s1.37,4.78,4.61,4.74L246,69.7S244.83,64.9,241.37,64.69Z"/><path class="cls-7" d="M257,82.33a8.38,8.38,0,0,1-1.11-.07,7.95,7.95,0,0,1-6.74-9h0a7.93,7.93,0,1,1,7.85,9ZM257,67a7.46,7.46,0,0,0-7.37,6.41h0A7.46,7.46,0,1,0,258,67,7.55,7.55,0,0,0,257,67Z"/><path class="cls-7" d="M239.39,79.85a5.66,5.66,0,0,1-.82-.06c-3.69-.53-6.2-4.48-5.6-8.81h0a8.52,8.52,0,0,1,3.18-5.64,6.18,6.18,0,0,1,4.6-1.25c3.68.53,6.2,4.49,5.6,8.82a8.5,8.5,0,0,1-3.18,5.63A6.28,6.28,0,0,1,239.39,79.85Zm-6-8.81c-.56,4.08,1.77,7.8,5.21,8.29a5.72,5.72,0,0,0,4.25-1.16,8.07,8.07,0,0,0,3-5.33c.56-4.07-1.77-7.79-5.21-8.29a5.7,5.7,0,0,0-4.25,1.16,8,8,0,0,0-3,5.33Z"/><path class="cls-7" d="M249.22,73.52a3.41,3.41,0,0,0-3-.43l-.17-.43a3.8,3.8,0,0,1,3.47.49Z"/><rect class="cls-7" x="266.83" y="74.86" width="0.47" height="6.45" transform="translate(42.85 242.85) rotate(-52.61)"/><path class="cls-12" d="M269.42,80.83c0-1.46-4.51-13.16,1.29-27.51,0,0,5.62-.82,6.58,9.46C278.83,79.27,269.42,80.83,269.42,80.83Z"/><path class="cls-8" d="M266.54,85.74a17.92,17.92,0,0,1,3.3-6c2.06-2.45,4.86-4.6,7.81-2.3,5,3.93-2.58,11.85-8.52,11.3-1.75-.17-3-1.69-2.59-3Z"/><path class="cls-9" d="M268.9,84.36l-.06,0a.12.12,0,0,1,0-.16c0-.05,2.86-4.54,6.95-2.62a.11.11,0,0,1,.06.15.12.12,0,0,1-.16.06c-3.9-1.83-6.62,2.49-6.65,2.53A.11.11,0,0,1,268.9,84.36Z"/><path class="cls-12" d="M272.41,54.48s-7.54,7.71-35.48,4c0,0,5.29-10.71,19.68-11.63S272.41,54.48,272.41,54.48Z"/><path class="cls-7" d="M273.5,104.75s-6-2.21-11.32-.32c-8.73,3.08-14.17,28.21-13.83,51.25.33,23.26,7.72,67.38,7.72,67.38s25.44,8.69,42.58-4.49l-28-43.7,11.62-36.22Z"/><path class="cls-7" d="M273.5,104.75c4.9,2.53,22.91,14,48.37,60.22L303,175.89l-32.78-41.84,2-26.47C272.32,106.8,272.8,104.39,273.5,104.75Z"/><path class="cls-10" d="M279.74,146.27a.11.11,0,0,1-.09,0L272,136.45a.11.11,0,0,1,0-.16.12.12,0,0,1,.17,0l7.65,9.77a.12.12,0,0,1,0,.17Z"/><path class="cls-8" d="M253.85,169.69l11.56-1.91-.22-2.56a2.15,2.15,0,0,1,1.31-2.16,2,2,0,0,1,2.39.75l7.05,11.12,5.34,8.56c-6.89,2.94-13.12,2-14.81.44l-8.92.15a1.61,1.61,0,0,1-1.75-1.42c-.09-.65.12-1.56,2-1.87l-1.84.31a1.68,1.68,0,0,1-1.83-1.52c-.11-.84.64-1.65,1.77-2l-1.37.09A1.74,1.74,0,0,1,252.6,176a1.93,1.93,0,0,1,1.62-1.85l2-.33L254,173.6a1.88,1.88,0,0,1-1.91-2A2,2,0,0,1,253.85,169.69Z"/><polygon class="cls-8" points="275.94 174.93 295.18 170.99 297.61 182.56 277.94 184.64 275.94 174.93"/><path class="cls-7" d="M309.48,160.23l-35.93,10,6.51,16.36L314.45,181a10.7,10.7,0,0,0,8.4-13.83h0A10.68,10.68,0,0,0,309.48,160.23Z"/><path class="cls-10" d="M293.92,164.66a.13.13,0,0,1-.11-.09.11.11,0,0,1,.08-.14l12-3.33a.11.11,0,0,1,.14.08.12.12,0,0,1-.08.15l-12,3.32Z"/><path class="cls-19" d="M177.81,204.18a22.69,22.69,0,0,0-2,13.18,7.28,7.28,0,0,1-.2,3.5l-1.76,5.6a2.34,2.34,0,0,0,1.3,2.86,2.52,2.52,0,0,0,3.22-1.16c.68-1.62,1.35-3.25,2-4.87l.61,1.76a10.47,10.47,0,0,1,.35,3c-.08,2.13-.06,3.25-.54,4.13l-3.49,4.17c-2.12.9-3.24,2.33-3,3.3a1.78,1.78,0,0,0,1,1c1.06.47,2,0,3.55-1a26.92,26.92,0,0,0,4.36-3.66,28.51,28.51,0,0,0,2.34-2.68c1.14-1.47,1.17-2.69,1.56-4.51a38.58,38.58,0,0,0,.8-5.88,35.8,35.8,0,0,0-1-9.36c-.44-2.71-2.77-6.25-4.36-10.39C180.43,203.62,180.07,203.73,177.81,204.18Z"/><path class="cls-20" d="M171.56,149.88l-2.23-35.66C166.85,92.71,156.47,84,151.59,80.8c-1-.67-3-.56-3,.68l-1.39,44.9,5.29-2.9L156.25,173l15.24,35.42a1.92,1.92,0,0,0,2.5,1l11.69-4.87a2.65,2.65,0,0,0,1.51-3.21l-15.35-50A6.47,6.47,0,0,1,171.56,149.88Z"/><path class="cls-21" d="M169.18,251q-.12-18.63-1-36.46a309.85,309.85,0,0,0-5.44-41.26c-1.69-8.44-3.65-16.37-5.75-23.74l-32.28,3.08-25.9,3.16Q95.12,178.35,92.1,202c-2,15.7-3.18,31.18-4.52,46.41-.29,3.26-.23,6.53-.3,9.81l.14,27.89,37.71.24c0-.12,1.85-32.77,1.86-32.89q2.06-23.82,3.31-46.79c-1,18.4-1.59,27.19-1.74,46.82l.52,32.86,38.87-.24Z"/><path d="M130.3,206.75a.05.05,0,0,1-.05,0,.05.05,0,0,1,0-.07L144,200.73a.05.05,0,0,1,.07,0,.05.05,0,0,1,0,.07l-13.75,5.92Z"/><path class="cls-22" d="M124.14,74.11c-7.42.63-14.24,1.72-21.17,4.46-1.85.73-4.09,1.68-5.75,2.55-4.94,2.59-3.54,8.59-2.92,14.29a296.34,296.34,0,0,1,0,36.25c-.75,12.11-3.08,16.76-1.28,31,.67,5.31.47,12.44.64,16,.09,2,.88,4.43,2.56,5.44s2.3,1.14,6.71,1.28c2.53.07,7.31-.85,9.92-1.28,7.59-1.27,28.33-.52,42.54-.64a11.19,11.19,0,0,0,6.08-1.6A8.44,8.44,0,0,0,166,175.8c1-5.33.13-13.4-.32-19.83-1.1-15.67-3-25.41-3.52-40.62-.95-6.08.32-14.08-4.36-26.34-2.13-5.6-5.29-8-7.33-8.88-9-3.7-18.09-6.09-22.42-6.35Z"/><path class="cls-20" d="M144.21,77.8s-5.58-2.77-15.13-3.23c0,0-8.09-1-15.13.88l18.34,28.09a3.45,3.45,0,0,0,6.11-.84Z"/><polygon class="cls-23" points="132.81 79.46 127.76 85.82 133.76 90.17 138.53 85.12 132.81 79.46"/><path class="cls-23" d="M132.49,87.47l-2.71,12.47,2.56,3.72c1.84,2.43,5.19,1.73,6.19-1.14h0l-4-15Z"/><path class="cls-24" d="M126.15,88.38l-.06,0-5.75-3.46a.12.12,0,0,1,0-.16.13.13,0,0,1,.16,0l5.65,3.4,1.33-2a.11.11,0,0,1,.16,0,.11.11,0,0,1,0,.16l-1.39,2.09A.11.11,0,0,1,126.15,88.38Z"/><path class="cls-24" d="M140.38,87a.13.13,0,0,1-.08,0l-1.64-1.47a.14.14,0,0,1,0-.17.12.12,0,0,1,.17,0l1.56,1.4,2-1.86a.12.12,0,0,1,.16,0,.12.12,0,0,1,0,.17l-2.08,1.93A.12.12,0,0,1,140.38,87Z"/><path class="cls-20" d="M105.81,77.59s-22.12-1.86-51.65,74.22L78,162.13l22.17-44.94C108.35,97.71,105.81,77.59,105.81,77.59Z"/><polygon points="85.95 102.54 132.82 106.98 131.94 118.3 86.38 113.53 85.95 102.54"/><polygon class="cls-2" points="130.6 113.8 130.87 108.35 86.74 104.51 86.64 110.06 130.6 113.8"/><polygon class="cls-25" points="87.84 107.21 82.56 172.28 129.18 175.91 135.17 111.36 87.84 107.21"/><polygon points="87.84 107.21 85.95 102.54 80.51 167.37 82.56 172.28 87.84 107.21"/><polygon class="cls-2" points="124.03 132.24 94.38 129.65 94.97 121.84 124.62 124.43 124.03 132.24"/><polygon class="cls-19" points="84.03 148.88 115.69 151.88 117.06 163.08 86.06 165.24 84.03 148.88"/><path class="cls-19" d="M134.92,147.89a4.81,4.81,0,0,0-3.57-2.45c-1.59-.07-5,1.48-7.06,2.24a9.58,9.58,0,0,1,.76-.86,12.73,12.73,0,0,1,1-.88A4.26,4.26,0,0,0,127.4,144a2.54,2.54,0,0,0,.14-1.33,2.08,2.08,0,0,0-.41-.9,2.19,2.19,0,0,0-3-.38l-3.4,2.46a11.33,11.33,0,0,0-4,5.31l-1,2.62-.11.07,0,.17-.3.83.39-.12,1.26,10.33c1.37.48,10.41,1.95,16-.82a5.82,5.82,0,0,0,2.71-3.19,10.34,10.34,0,0,0,.72-4.08A14,14,0,0,0,134.92,147.89Z"/><path class="cls-20" d="M68.06,144.43l41.84,2.48a2.77,2.77,0,0,1,2.6,2.56l1.26,16.86a2.33,2.33,0,0,1-2.31,2.5l-46,.44a12.52,12.52,0,0,1-11.84-14.79h0A12.52,12.52,0,0,1,68.06,144.43Z"/><path class="cls-24" d="M85.44,145.58h0l-12-.71a.12.12,0,0,1-.11-.13.12.12,0,0,1,.12-.11l12,.72a.1.1,0,0,1,.11.12A.11.11,0,0,1,85.44,145.58Z"/><path class="cls-26" d="M144.51,19.93c2.74,1.75,5.58,3.6,7.22,6.4s1.65,6.86-.87,8.91c.49,2.06,1.4,3.17,1.9,5.23a21.25,21.25,0,0,1,.21,5.58,5.07,5.07,0,0,1-2.13,4,4.66,4.66,0,0,1-5.53-.86,7.63,7.63,0,0,1-2-5.51,22.51,22.51,0,0,1,1.1-5.9,49.42,49.42,0,0,1-5-9.34,9.18,9.18,0,0,1-.91-5.24c.37-1.76,2.06-3.37,3.83-3"/><path class="cls-27" d="M139.81,58.11a16.77,16.77,0,0,1,2.18-6c1.55-2.54,3.81-4.91,6.85-3.22,5.18,2.89-.68,11.25-6.22,11.59-1.63.1-3-1.11-2.81-2.42Z"/><polygon class="cls-19" points="122.83 43.49 120.31 74.54 132.81 79.46 137.5 75.89 136.14 46.88 122.83 43.49"/><polygon class="cls-27" points="137.45 75.59 126.17 64.41 137.03 60.09 137.45 75.59"/><path class="cls-26" d="M119.59,47.09c3.52,5.67,2,8.76,2,8.76,4,5.29,1.68,8.43,1.68,8.43s2.86,1.28-3.34,2.89S111.65,60,111.65,60C102.76,57.17,108,43.14,108,43.14a12.09,12.09,0,0,1,3.58-11.79Z"/><path class="cls-19" d="M125.08,23.39a24.93,24.93,0,0,1,11.65.31c5.11,1.43,11.55,5.13,11.77,14.67.35,15.9-2.41,28.52-10.45,31.59-6.17,2.35-10.47,1-17.11-3.47-2.47-1.66-4.5-8.17-5-11.24l-2.41-8.65S106.72,27.15,125.08,23.39Z"/><path class="cls-28" d="M138.73,53.86a.1.1,0,0,1-.1,0,.11.11,0,0,1,0-.16l1.43-1L138.54,49a.11.11,0,0,1,.06-.15.12.12,0,0,1,.16.06l1.58,3.76a.12.12,0,0,1,0,.14l-1.51,1A.07.07,0,0,1,138.73,53.86Z"/><path class="cls-26" d="M141.65,37.84s-.72,1.56,1.69,2.07a21.72,21.72,0,0,1,4,1.07A1.47,1.47,0,0,0,149,40.7h0a.91.91,0,0,0,.07-1.16,6.33,6.33,0,0,0-3.93-2.48C142.27,36.42,141.65,37.84,141.65,37.84Z"/><path class="cls-26" d="M134.44,37s.68,1.77-2.77,1.89a50.62,50.62,0,0,0-7.27,1,2.43,2.43,0,0,1-2.21-.57h0a.81.81,0,0,1,.16-1.24,16,16,0,0,1,7.46-2.5C133.89,35.44,134.44,37,134.44,37Z"/><path class="cls-2" d="M134.19,46.51s-1.21-6.36-9.75-2.35C124.44,44.16,127.34,50.88,134.19,46.51Z"/><g class="cls-29"><path class="cls-26" d="M133.33,45.54a2.87,2.87,0,1,1-3-2.8A2.91,2.91,0,0,1,133.33,45.54Z"/></g><path d="M124.41,44.11a8.55,8.55,0,0,1,2.65-1.1,9.88,9.88,0,0,1,1.43-.22,6.93,6.93,0,0,1,1.44,0,5.6,5.6,0,0,1,2.7,1,3.8,3.8,0,0,1,1.51,2.46.11.11,0,0,1-.1.13.12.12,0,0,1-.13-.1h0a3.6,3.6,0,0,0-1.4-2.32,5.35,5.35,0,0,0-2.6-1,7.37,7.37,0,0,0-1.41,0,11,11,0,0,0-1.4.21,8.36,8.36,0,0,0-2.63,1.06s-.06,0-.07,0A.06.06,0,0,1,124.41,44.11Z"/><path class="cls-2" d="M140.69,47.14s2.86-6,7.09-1.46C147.78,45.68,145.61,51.66,140.69,47.14Z"/><g class="cls-30"><path class="cls-26" d="M142.83,46a2.22,2.22,0,1,0,4.2,1,2.22,2.22,0,1,0-4.2-1Z"/></g><path d="M147.73,45.71A3.85,3.85,0,0,0,144,44.17a3.11,3.11,0,0,0-1,.37,4.12,4.12,0,0,0-.85.64A5,5,0,0,0,141,46.92h0a.11.11,0,0,1-.15.06.11.11,0,0,1-.06-.15h0a5.2,5.2,0,0,1,2.16-2.47A3.65,3.65,0,0,1,144,44a4,4,0,0,1,3.87,1.65.05.05,0,0,1,0,.08A.06.06,0,0,1,147.73,45.71Z"/><path class="cls-28" d="M139.29,59.14a13,13,0,0,1-5.59-1.32.12.12,0,0,1,0-.16.1.1,0,0,1,.15,0c5.56,2.65,9.7.43,9.74.41a.12.12,0,0,1,.16,0,.12.12,0,0,1,0,.16A9.67,9.67,0,0,1,139.29,59.14Z"/><path class="cls-26" d="M138.93,55.15a2,2,0,0,0-1.4-1.15,6.05,6.05,0,0,0-5.32,1.07c-3.33,2.41-6.22,2-7.21,1.35a10.13,10.13,0,0,0,12,2.33,3.68,3.68,0,0,0,1.75-1.67A2.4,2.4,0,0,0,138.93,55.15Z"/><path class="cls-26" d="M138,56.43c-.28-1.46,1.39-2.56,3.2-2.23a5.76,5.76,0,0,1,3.09,1.68c2.66,2.65,4.41,2.64,5.4,2.19,0,0-4.62,4.89-10.92,0A3.82,3.82,0,0,1,138,56.43Z"/><path class="cls-18" d="M147.62,41l5.15,6.59s-.31,4.41-4.47,4.53l-7.9-10.43S141.07,39.43,147.62,41Z"/><path class="cls-18" d="M129.33,39.52l6.1,7.49s-.36,4.48-5.41,3.62l-8.84-11S123.24,38.91,129.33,39.52Z"/><path d="M131.86,51h-.1l-8.06-.67A3.82,3.82,0,0,1,120.52,47a15.31,15.31,0,0,1,.2-5,3.56,3.56,0,0,1,3.09-2.82c2.63-.26,10.57.58,10.9.62h0a3,3,0,0,1,2,3.33h0v0a17,17,0,0,1-1.91,6.16A3.43,3.43,0,0,1,131.86,51Zm-6.74-11.39c-.5,0-.92,0-1.26,0a3.1,3.1,0,0,0-2.69,2.46,15,15,0,0,0-.19,4.8,3.36,3.36,0,0,0,2.78,3l8,.66a3,3,0,0,0,2.63-1.42,16.49,16.49,0,0,0,1.84-6v0a2.52,2.52,0,0,0-1.62-2.8C134.21,40.26,128.31,39.64,125.12,39.64Zm11.37,3.5Z"/><path d="M125,39.35l-5.3-.14a.57.57,0,0,0-.58.55l0,1a.61.61,0,0,0,.21.47l1.65,1.36S122.1,39.45,125,39.35Z"/><path d="M148.93,52.36h0L143.59,52a3.46,3.46,0,0,1-2.76-2.1,15.66,15.66,0,0,1-.79-6v-.57h0A3.26,3.26,0,0,1,140.9,41a2.24,2.24,0,0,1,1.63-.65h0a54.71,54.71,0,0,1,8,1,3.54,3.54,0,0,1,2.61,3.27,15.43,15.43,0,0,1-.58,4.92A3.82,3.82,0,0,1,148.93,52.36Zm-8.42-9v.57a15.35,15.35,0,0,0,.75,5.79,3,3,0,0,0,2.38,1.82l5.29.39h0a3.35,3.35,0,0,0,3.18-2.48,14.81,14.81,0,0,0,.56-4.77,3.08,3.08,0,0,0-2.26-2.85,55,55,0,0,0-7.9-1h0a1.76,1.76,0,0,0-1.29.51,2.79,2.79,0,0,0-.72,2Z"/><path d="M149.38,41.29l5.25.7a.57.57,0,0,1,.49.63l-.11,1a.56.56,0,0,1-.28.42l-1.84,1.08S152.2,41.84,149.38,41.29Z"/><path d="M136,46.12a.23.23,0,0,1-.21-.13.23.23,0,0,1,.11-.31c2.83-1.38,4.44-.11,4.5,0a.23.23,0,0,1,0,.32.24.24,0,0,1-.33,0h0c-.06-.05-1.46-1.13-4,.11Z"/><path d="M113.73,47.56a.23.23,0,0,1-.18-.09.22.22,0,0,1,0-.32L120.9,41a.23.23,0,0,1,.3.36l-7.32,6.11A.22.22,0,0,1,113.73,47.56Z"/><path class="cls-26" d="M115.5,34.78c1,6.61-1.67,8.83-1.67,8.83C115.37,50,112,52,112,52s2.12,2.3-4.21,1.32-4.71-9.86-4.71-9.86c-7-6.11,3.35-16.91,3.35-16.91a12.11,12.11,0,0,1,8-9.4Z"/><path class="cls-19" d="M118,56.64a17.44,17.44,0,0,0-2.17-6.3c-1.56-2.7-3.89-5.25-7.13-3.54-5.51,2.93.47,11.85,6.29,12.33,1.71.14,3.21-1.1,3-2.49Z"/><path class="cls-28" d="M116,54.92a.11.11,0,0,1-.1-.08s-1.91-4.66-6-3.57a.12.12,0,0,1-.15-.08.12.12,0,0,1,.09-.14c4.27-1.15,6.23,3.66,6.25,3.71a.11.11,0,0,1-.06.15Z"/><path class="cls-26" d="M123,27.59c1.72-1,4.34,1.28,7,.32a6.75,6.75,0,0,1,2.86-.71c2.18,0,2.26.67,4.12,1a6.13,6.13,0,0,0,4.09-.39c.23-.11.47-.17.6.05.58.92,2.1,2.46,5.5,1.4,4.67-1.47,2.08-8.71-1-9.42a8.69,8.69,0,0,0-9.61-6.62c-9.63.92-9.35-.91-14.91-.48A13.45,13.45,0,0,0,111,19.92L112,38.63c4,.27,5.8-2,7.91-5.44C120.84,31.73,121.48,28.64,123,27.59Z"/></g></g></g></g></svg>