<svg xmlns="http://www.w3.org/2000/svg" xmlns:xlink="http://www.w3.org/1999/xlink" viewBox="0 0 305.32 217.62"><defs><style>.cls-1,.cls-8{fill:#b4426f;}.cls-2{clip-path:url(#clip-path);}.cls-3{fill:#e5ad9e;}.cls-4{fill:#d1968b;}.cls-5,.cls-9{fill:#fff;}.cls-6{fill:#b3b3b3;}.cls-7{fill:#4d4d4d;}.cls-8{stroke:#fff;stroke-miterlimit:10;stroke-width:2px;}.cls-9{font-size:24px;font-family:Poppins-Bold, Poppins;font-weight:700;}</style><clipPath id="clip-path" transform="translate(54.2)"><circle id="SVGID" class="cls-1" cx="100" cy="117.62" r="100"/></clipPath></defs><g id="Capa_2" data-name="Capa 2"><g id="propuesta_página_nueva" data-name="propuesta página nueva"><g id="funcionamiento"><circle id="SVGID-2" data-name="SVGID" class="cls-1" cx="154.2" cy="117.62" r="100"/><g class="cls-2"><path class="cls-3" d="M240.09,169.89,149,162.61l-3.12,11.93s47.62,13.63,89.8,22.12c6.69,1.34,14.64-5.2,15.38-12h0C251.75,178.25,246.43,170.65,240.09,169.89Z" transform="translate(54.2)"/><path class="cls-3" d="M153.34,165.07a30.46,30.46,0,0,0-21.82-9.94l-11.43-7a4.37,4.37,0,0,0-5.44.63h0a3.74,3.74,0,0,0,.4,5.43l6,5.22-2.78-.59A21.09,21.09,0,0,1,107,152.36l-8.34-9.27a4.26,4.26,0,0,0-3.84-1.32h0a3.57,3.57,0,0,0-2.51,5.6l9.31,13.38a23.85,23.85,0,0,0,15.89,9.76L152.35,176Z" transform="translate(54.2)"/><path class="cls-3" d="M-40.24,83.46,48.3,92.73l9.93,21.17s-56.94-2.5-99.95-3.35c-6.83-.14-13.17-8.25-12.42-15.07h0C-53.44,89.1-46.6,82.82-40.24,83.46Z" transform="translate(54.2)"/><path class="cls-3" d="M58.43,91.06l19.26,1.25L66.78,117.42,56,116.94c-12.28-.8-21.9-8.55-21.49-17.3l.13-2.73a13,13,0,0,1,5.18-9.32s5.47-5.4,20-7.88Z" transform="translate(54.2)"/><path class="cls-3" d="M57.63,100.68h0a3.59,3.59,0,0,1,4-2.69l13,1.41A4.06,4.06,0,0,1,78.56,104h0a4.29,4.29,0,0,1-5,3.15l-12.88-2.59A3.42,3.42,0,0,1,57.63,100.68Z" transform="translate(54.2)"/><path class="cls-4" d="M74.31,107.28a4.93,4.93,0,0,1-.76,0l-12.88-2.6a3.89,3.89,0,0,1-2.59-1.55,3.13,3.13,0,0,1-.55-2.41,3.71,3.71,0,0,1,4.14-2.78L74.73,99.3A4.61,4.61,0,0,1,78,101.09a3.69,3.69,0,0,1,.7,2.91A4.31,4.31,0,0,1,74.31,107.28ZM61.23,98.07a3.45,3.45,0,0,0-3.5,2.63h0a2.92,2.92,0,0,0,.51,2.26,3.72,3.72,0,0,0,2.47,1.48L73.59,107A4.18,4.18,0,0,0,78.46,104a3.47,3.47,0,0,0-.66-2.75,4.41,4.41,0,0,0-3.1-1.71L61.65,98.09A3,3,0,0,0,61.23,98.07Z" transform="translate(54.2)"/><path class="cls-3" d="M56.8,106.49h0A3.47,3.47,0,0,1,60.72,104l9.81,1.29c2.45.27,4.18,2.25,3.79,4.33h0a4.11,4.11,0,0,1-4.85,2.94l-9.65-2.4A3.29,3.29,0,0,1,56.8,106.49Z" transform="translate(54.2)"/><path class="cls-4" d="M70.22,112.7a5.09,5.09,0,0,1-.77-.06l-9.66-2.4a3.91,3.91,0,0,1-2.58-1.54,2.93,2.93,0,0,1-.51-2.22,3.56,3.56,0,0,1,4-2.6l9.81,1.29a4.62,4.62,0,0,1,3.23,1.77,3.44,3.44,0,0,1,.65,2.68A4.11,4.11,0,0,1,70.22,112.7Zm-9.95-8.64a3.3,3.3,0,0,0-3.37,2.45h0a2.67,2.67,0,0,0,.47,2.07A3.71,3.71,0,0,0,59.83,110l9.66,2.4a4,4,0,0,0,4.73-2.86,3.18,3.18,0,0,0-.61-2.52,4.42,4.42,0,0,0-3.09-1.69l-9.81-1.29Z" transform="translate(54.2)"/><path class="cls-3" d="M55.44,110.86h0a3.4,3.4,0,0,1,3.79-2.54l7.47,1.77c2.61.74,4,2.22,3.62,4.3h0a4,4,0,0,1-4.69,3l-7.31-2.87C56.29,113.79,55.12,112.56,55.44,110.86Z" transform="translate(54.2)"/><path class="cls-4" d="M66.32,117.5a4.31,4.31,0,0,1-.71,0h0l-7.31-2.87c-2.2-.75-3.25-2.07-2.94-3.73h0a3.51,3.51,0,0,1,3.9-2.62L66.73,110c2.77.79,4.07,2.36,3.69,4.42A4.07,4.07,0,0,1,66.32,117.5Zm-.67-.25a3.93,3.93,0,0,0,4.57-2.88c.37-1.94-.89-3.43-3.54-4.19l-7.47-1.76a3.29,3.29,0,0,0-3.67,2.46c-.29,1.54.71,2.79,2.81,3.51Z" transform="translate(54.2)"/><path class="cls-3" d="M33.7,92.34s1.38-.69,6.22-4.74l-3.24,8.53Z" transform="translate(54.2)"/><path class="cls-5" d="M44.86,102.72,62.45,67.05s23.83-10,44.94,5.49c21.28,15.63,25.42,32.48,53.66,37.8l-17.47,40.58s-22.79,1.66-46.17-26.36C80.68,104.51,80.3,99.82,44.86,102.72Z" transform="translate(54.2)"/><path class="cls-6" d="M55.24,98.1a.35.35,0,0,1-.14,0,.31.31,0,0,1-.13-.4l8.65-17a.3.3,0,0,1,.53.27l-8.64,17A.32.32,0,0,1,55.24,98.1Z" transform="translate(54.2)"/><path class="cls-6" d="M58.74,97.88a.31.31,0,0,1-.13,0,.3.3,0,0,1-.14-.4l6.1-12.25a.32.32,0,0,1,.41-.13.29.29,0,0,1,.13.4L59,97.72A.3.3,0,0,1,58.74,97.88Z" transform="translate(54.2)"/><path class="cls-6" d="M67.61,94.49a.35.35,0,0,1-.14,0,.31.31,0,0,1-.13-.4L80.66,68.2a.3.3,0,0,1,.4-.13.29.29,0,0,1,.13.4L67.88,94.33A.3.3,0,0,1,67.61,94.49Z" transform="translate(54.2)"/><path class="cls-6" d="M72.25,95.09a.32.32,0,0,1-.14,0,.31.31,0,0,1-.13-.41L85.49,69.3a.3.3,0,0,1,.41-.13.31.31,0,0,1,.12.41L72.51,94.94A.28.28,0,0,1,72.25,95.09Z" transform="translate(54.2)"/><path class="cls-6" d="M76.43,96.48a.27.27,0,0,1-.14,0,.29.29,0,0,1-.12-.4L88,74.74a.3.3,0,1,1,.52.29L76.7,96.33A.31.31,0,0,1,76.43,96.48Z" transform="translate(54.2)"/><path class="cls-6" d="M90.37,103.16a.28.28,0,0,1-.15,0,.3.3,0,0,1-.11-.41L105,77a.29.29,0,0,1,.41-.1.3.3,0,0,1,.11.41L90.63,103A.31.31,0,0,1,90.37,103.16Z" transform="translate(54.2)"/><path class="cls-6" d="M93.63,107.08a.24.24,0,0,1-.15,0,.28.28,0,0,1-.11-.4l14.21-24.75a.31.31,0,0,1,.41-.11.29.29,0,0,1,.11.41L93.89,106.93A.3.3,0,0,1,93.63,107.08Z" transform="translate(54.2)"/><path class="cls-6" d="M96.91,110.6a.26.26,0,0,1-.15,0,.29.29,0,0,1-.11-.41l12.1-21.07a.29.29,0,0,1,.41-.11.29.29,0,0,1,.11.41l-12.1,21.07A.32.32,0,0,1,96.91,110.6Z" transform="translate(54.2)"/><path class="cls-6" d="M106.08,121.46a.28.28,0,0,1-.15,0,.3.3,0,0,1-.11-.41l16.26-28.78a.29.29,0,0,1,.41-.11.29.29,0,0,1,.11.4l-16.26,28.79A.32.32,0,0,1,106.08,121.46Z" transform="translate(54.2)"/><path class="cls-6" d="M109.2,124.52a.42.42,0,0,1-.15,0,.31.31,0,0,1-.11-.41l15.61-27.16a.3.3,0,0,1,.41-.12.31.31,0,0,1,.11.41l-15.61,27.17A.3.3,0,0,1,109.2,124.52Z" transform="translate(54.2)"/><path class="cls-6" d="M112.74,127.6a.33.33,0,0,1-.15,0,.29.29,0,0,1-.11-.41L125.76,104a.3.3,0,0,1,.41-.11.29.29,0,0,1,.11.41L113,127.45A.32.32,0,0,1,112.74,127.6Z" transform="translate(54.2)"/><path class="cls-6" d="M123.61,136.11a.35.35,0,0,1-.14,0,.31.31,0,0,1-.13-.41l13.95-27.43a.3.3,0,0,1,.4-.13.29.29,0,0,1,.13.4l-13.95,27.43A.28.28,0,0,1,123.61,136.11Z" transform="translate(54.2)"/><path class="cls-6" d="M126.85,138.59a.32.32,0,0,1-.14,0,.29.29,0,0,1-.13-.4l14-27.43a.3.3,0,1,1,.53.27l-14,27.43A.29.29,0,0,1,126.85,138.59Z" transform="translate(54.2)"/><path class="cls-6" d="M130.52,140.69a.32.32,0,0,1-.14,0,.29.29,0,0,1-.13-.4l11.87-23.36a.3.3,0,0,1,.41-.13.3.3,0,0,1,.13.4l-11.88,23.36A.29.29,0,0,1,130.52,140.69Z" transform="translate(54.2)"/><circle class="cls-7" cx="120.79" cy="97.1" r="1.05"/><circle class="cls-7" cx="142.6" cy="104.95" r="1.05"/><circle class="cls-7" cx="158.48" cy="123.47" r="1.05"/><circle class="cls-7" cx="176.64" cy="138.04" r="1.05"/><path class="cls-6" d="M84,100.56a.31.31,0,0,1-.13,0L81,99.08a.35.35,0,0,1-.15-.17.36.36,0,0,1,0-.23l1.45-2.84a.3.3,0,0,1,.4-.14l2.84,1.45a.31.31,0,0,1,.15.17.26.26,0,0,1,0,.23l-1.44,2.84A.29.29,0,0,1,84,100.56Zm-2.44-1.88,2.31,1.17L85,97.55l-2.3-1.17Z" transform="translate(54.2)"/><path class="cls-6" d="M86.14,96.21a.35.35,0,0,1-.14,0l-2.84-1.45a.3.3,0,0,1-.13-.4l1.44-2.84a.34.34,0,0,1,.18-.15.31.31,0,0,1,.23,0l2.84,1.44a.3.3,0,0,1,.13.41l-1.44,2.84a.34.34,0,0,1-.18.15ZM83.7,94.34,86,95.51l1.17-2.31L84.87,92Z" transform="translate(54.2)"/><path class="cls-6" d="M88.33,91.87a.33.33,0,0,1-.14,0l-2.84-1.44a.3.3,0,0,1-.15-.18.31.31,0,0,1,0-.23l1.44-2.84a.34.34,0,0,1,.18-.15.37.37,0,0,1,.23,0l2.84,1.45a.3.3,0,0,1,.13.4L88.59,91.7A.28.28,0,0,1,88.33,91.87ZM85.89,90l2.31,1.17,1.17-2.3-2.31-1.18Z" transform="translate(54.2)"/><path class="cls-6" d="M90.92,87.54a.35.35,0,0,1-.14,0l-2.84-1.44a.32.32,0,0,1-.13-.41l1.45-2.84a.29.29,0,0,1,.4-.13l2.84,1.44a.3.3,0,0,1,.13.41l-1.44,2.84A.3.3,0,0,1,90.92,87.54Zm-2.44-1.87,2.31,1.17L92,84.53l-2.3-1.17Z" transform="translate(54.2)"/><path class="cls-6" d="M102.82,116a.27.27,0,0,1-.17-.06L100,114a.3.3,0,0,1-.07-.42l1.91-2.66a.3.3,0,0,1,.42-.07l2.66,1.91a.3.3,0,0,1,.07.42l-1.91,2.66A.31.31,0,0,1,102.82,116Zm-2.24-2.29,2.17,1.57,1.57-2.17-2.18-1.57Z" transform="translate(54.2)"/><path class="cls-6" d="M105.39,111.45a.32.32,0,0,1-.18-.06l-2.66-1.91a.3.3,0,0,1-.06-.42l1.91-2.66a.29.29,0,0,1,.42-.07l2.66,1.91a.31.31,0,0,1,.07.42l-1.92,2.66A.31.31,0,0,1,105.39,111.45Zm-2.24-2.28,2.17,1.56,1.56-2.17L104.71,107Z" transform="translate(54.2)"/><path class="cls-6" d="M108,106.92a.28.28,0,0,1-.18-.06L105.12,105a.31.31,0,0,1-.07-.42l1.92-2.66a.25.25,0,0,1,.19-.12.28.28,0,0,1,.22,0l2.67,1.91a.3.3,0,0,1,.06.42l-1.91,2.66a.34.34,0,0,1-.2.13Zm-2.25-2.28,2.18,1.56,1.56-2.17-2.17-1.57Z" transform="translate(54.2)"/><path class="cls-6" d="M110.52,102.39a.27.27,0,0,1-.17-.06l-2.66-1.91a.28.28,0,0,1-.12-.2.25.25,0,0,1,.05-.22l1.91-2.66a.3.3,0,0,1,.42-.07l2.66,1.92a.29.29,0,0,1,.07.41l-1.91,2.66A.29.29,0,0,1,110.52,102.39Zm-2.24-2.28,2.17,1.56L112,99.5l-2.18-1.57Z" transform="translate(54.2)"/><path class="cls-6" d="M118.18,132.61a.28.28,0,0,1-.15,0L115.25,131a.31.31,0,0,1-.11-.41l1.6-2.78a.31.31,0,0,1,.18-.14.31.31,0,0,1,.23,0l2.78,1.59a.31.31,0,0,1,.11.41l-1.6,2.78A.28.28,0,0,1,118.18,132.61Zm-2.37-2,2.26,1.29,1.3-2.26-2.26-1.29Z" transform="translate(54.2)"/><path class="cls-6" d="M120.64,128.33a.23.23,0,0,1-.14,0l-2.79-1.6a.3.3,0,0,1-.11-.41l1.6-2.78a.31.31,0,0,1,.18-.14.31.31,0,0,1,.23,0l2.78,1.6a.3.3,0,0,1,.11.41l-1.6,2.78a.26.26,0,0,1-.18.14Zm-2.37-2,2.26,1.3,1.3-2.26-2.26-1.3Z" transform="translate(54.2)"/><path class="cls-6" d="M123.11,124.05a.33.33,0,0,1-.15,0l-2.78-1.6a.29.29,0,0,1-.11-.41l1.59-2.78a.31.31,0,0,1,.41-.11l2.78,1.6a.29.29,0,0,1,.11.41l-1.59,2.78A.32.32,0,0,1,123.11,124.05Zm-2.38-2,2.26,1.3,1.3-2.26-2.26-1.3Z" transform="translate(54.2)"/><path class="cls-6" d="M125.57,119.76a.26.26,0,0,1-.15,0l-2.78-1.59a.29.29,0,0,1-.11-.41l1.59-2.78a.29.29,0,0,1,.41-.11l2.78,1.59a.29.29,0,0,1,.11.41l-1.59,2.78A.3.3,0,0,1,125.57,119.76Zm-2.37-2,2.26,1.3,1.29-2.26-2.26-1.3Z" transform="translate(54.2)"/><path class="cls-6" d="M137.05,143.52a.25.25,0,0,1-.14,0L134,142a.29.29,0,0,1-.13-.4l1.47-2.9a.29.29,0,0,1,.4-.13l2.9,1.47a.34.34,0,0,1,.15.18.31.31,0,0,1,0,.23l-1.47,2.89a.3.3,0,0,1-.18.15Zm-2.49-1.91,2.36,1.2,1.2-2.36-2.36-1.2Z" transform="translate(54.2)"/><path class="cls-6" d="M139.32,139.05a.35.35,0,0,1-.14,0l-2.89-1.47a.31.31,0,0,1-.14-.41l1.48-2.89a.29.29,0,0,1,.4-.13l2.9,1.47a.35.35,0,0,1,.15.17.3.3,0,0,1,0,.23l-1.47,2.9a.34.34,0,0,1-.18.15Zm-2.5-1.9,2.37,1.2,1.2-2.36-2.36-1.2Z" transform="translate(54.2)"/><path class="cls-6" d="M141.59,134.59a.32.32,0,0,1-.14,0l-2.9-1.47a.28.28,0,0,1-.14-.18.31.31,0,0,1,0-.23l1.48-2.89a.3.3,0,0,1,.4-.14l2.9,1.48a.3.3,0,0,1,.13.4l-1.47,2.9a.34.34,0,0,1-.18.15Zm-2.5-1.9,2.37,1.2,1.2-2.36-2.36-1.21Z" transform="translate(54.2)"/><path class="cls-6" d="M143.86,130.13a.32.32,0,0,1-.14,0l-2.9-1.48a.31.31,0,0,1-.15-.17.36.36,0,0,1,0-.23l1.48-2.9a.3.3,0,0,1,.4-.13l2.9,1.47a.32.32,0,0,1,.13.41L144.12,130a.26.26,0,0,1-.17.15Zm-2.5-1.91,2.37,1.2,1.2-2.36-2.37-1.2Z" transform="translate(54.2)"/><path class="cls-6" d="M84.72,94.7a.42.42,0,0,1-.38-.28.41.41,0,0,1,.26-.5l1.16-.38-1.37-2.62a.41.41,0,0,1,.17-.54.4.4,0,0,1,.54.17l1.59,3a.4.4,0,0,1,0,.34.38.38,0,0,1-.24.22l-1.61.53Z" transform="translate(54.2)"/><path class="cls-6" d="M109.42,100.51a.4.4,0,0,1-.39-.33.39.39,0,0,1,.33-.46l1.25-.21-1-2.89a.4.4,0,0,1,.75-.25l1.14,3.33a.45.45,0,0,1,0,.34.4.4,0,0,1-.28.19l-1.71.28Z" transform="translate(54.2)"/><path class="cls-6" d="M116.91,130.91a.4.4,0,0,1-.1-.79l1.18-.32-1.24-2.71a.4.4,0,1,1,.73-.33l1.44,3.14a.42.42,0,0,1,0,.33.39.39,0,0,1-.25.22l-1.65.44Z" transform="translate(54.2)"/><path class="cls-6" d="M140.09,133.16a.39.39,0,0,1-.38-.27.4.4,0,0,1,.25-.51l1.19-.38-1.39-2.69a.39.39,0,1,1,.7-.36l1.62,3.09a.4.4,0,0,1,0,.34.39.39,0,0,1-.24.23l-1.64.53A.25.25,0,0,1,140.09,133.16Z" transform="translate(54.2)"/><path class="cls-3" d="M65.72,86.55h0a3.49,3.49,0,0,1-3.24,3.82L48.56,92.12a4.83,4.83,0,0,1-5.5-3.85h0a4.16,4.16,0,0,1,4.07-4.54l14.13-.47A4.08,4.08,0,0,1,65.72,86.55Z" transform="translate(54.2)"/></g><circle class="cls-8" cx="154.66" cy="18.5" r="17.5"/><text class="cls-9" transform="translate(150.51 26.86)">1</text></g></g></g></svg>