<svg id="Layer_1" enable-background="new 0 0 510 510" height="512" viewBox="0 0 510 510" width="512" xmlns="http://www.w3.org/2000/svg"><g id="XMLID_1551_"><path id="XMLID_368_" d="m169 71-19-11-30-10-30 10-14.863 222.943 14.863 197.057 80.069 10 84.931-10 10-210-10-180z" fill="#f3f3f9"/><path id="XMLID_361_" d="m420 60-30-6.95-30 6.95-105 30v390l73 10 92-10 16-180z" fill="#dadae0"/><path id="XMLID_354_" d="m255 300h135v30h-135z" fill="#f25862"/><path id="XMLID_349_" d="m255 240h135v30h-135z" fill="#79cc52"/><path id="XMLID_345_" d="m255 180h135v30h-135z" fill="#a4c6ec"/><path id="XMLID_340_" d="m255 120h135v30h-135z" fill="#ff9f40"/><path id="XMLID_332_" d="m255 360h135v30h-135z" fill="#ff9f40"/><path id="XMLID_308_" d="m255 420h135v30h-135z" fill="#79cc52"/><path id="XMLID_302_" d="m120 360h90v90h-90z" fill="#a0e65c"/><path id="XMLID_299_" d="m120 240h90v90h-90z" fill="#a4c6ec"/><path id="XMLID_262_" d="m156 209.214-40.606-40.607 21.212-21.213 19.394 19.393 38.227-38.226 21.212 21.212z" fill="#ff797d"/><path id="XMLID_1474_" d="m90 480v-420h60l15-15-15-15h-90v480h195l10-15-10-15z" fill="#4d5e80"/><path id="XMLID_1509_" d="m450 30h-90l-15 15 15 15h60v420h-165v30h195z" fill="#3d4566"/><path id="XMLID_236_" d="m255 90h-105v-90h105l10 45z" fill="#ff797d"/><path id="XMLID_89_" d="m255 0h105v90h-105z" fill="#f25862"/></g></svg>